/* XPM */
static char *f697ec07c9dd4fc493119d30137f1c35qt7GqAdfRxBwGZRU[] = {
/* columns rows colors chars-per-pixel */
"128 128 30 1 ",
"  c black",
". c gray33",
"X c #624148",
"o c #676767",
"O c #825760",
"+ c #90616A",
"@ c #9C6A74",
"# c #A9737E",
"$ c #9F7F86",
"% c #B57C87",
"& c #5BCEFA",
"* c #6EC9F2",
"= c #75CCF3",
"- c #65D1FA",
"; c #6FD4FB",
": c #78D7FB",
"> c gray53",
", c gray64",
"< c #BCBCBC",
"1 c #CC8C98",
"2 c #CFA7AF",
"3 c #EDABBC",
"4 c #F5A9B8",
"5 c #C8C8C8",
"6 c gray83",
"7 c #F3C9D4",
"8 c #F9C9D3",
"9 c gray96",
"0 c #FEFAFB",
"q c white",
/* pixels */
":;;;;;;;;;;;;;;;;;;;;;;;;;;;;;;;;;;;;;;;;;;;;;;;;;;;;;;;;;;;;;;;;;;;;;;;;;;;;;;;;;;;;;;;;;;;;;;;;;;;;;;;;;;;;;;;;;;;;;;;;;;;;;;:",
"-&&&&&&&&&&&&&&&&&&&&&&&&&&&&&&&&&&&&&&&&&&&&&&&&&&&&&&&&&&&&&&&&&&&&&&&&&&&&&&&&&&&&&&&&&&&&&&&&&&&&&&&&&&&&&&&&&&&&&&&&&&&&&&-",
"-&&&&&&&&&&&&&&&&&&&&&&&&&&&&&&&&&&&&&&&&&&&&&&&&&&&&&&&&&&&&&&&&&&&&&&&&&&&&&&&&&&&&&&&&&&&&&&&&&&&&&&&&&&&&&&&&&&&&&&&&&&&&&&-",
"-&&&&&&&&&&&&&&&&&&&&&&&&&&&&&&&&&&&&&&&&&&&&&&&&&&&&&&&&&&&&&&&&&&&&&&&&&&&&&&&&&&&&&&&&&&&&&&&&&&&&&&&&&&&&&&&&&&&&&&&&&&&&&&-",
"-&&&&&&&&&&&&&&&&&&&&&&&&&&&&&&&&&&&&&&&&&&&&&&&&&&&&&&&&&&&&&&&&&&&&&&&&&&&&&&&&&&&&&&&&&&&&&&&&&&&&&&&&&&&&&&&&&&&&&&&&&&&&&&-",
"-&&&&&&&&&&&&&&&&&&&&&&&&&&&&&&&&&&&&&&&&&&&&&&&&&&&&&&&&&&&&&&&&&&&&&&&&&&&&&&&&&&&&&&&&&&&&&&&&&&&&&&&&&&&&&&&&&&&&&&&&&&&&&&-",
"-&&&&&&&&&&&&&&&&&&&&&&&&&&&&&&&&&&&&&&&&&&&&&&&&&&&&&&&&&&&&&&&&&&&&&&&&&&&&&&&&&&&&&&&&&&&&&&&&&&&&&&&&&&&&&&&&&&&&&&&&&&&&&&-",
"-&&&&&&&&&&&&&&&&&&&&&&&&&&&&&&&&&&&&&&&&&&&&&&&&&&&&&&&&&&&&&&&&&&&&&&&&&&&&&&&&&&&&&&&&&&&&&&&&&&&&&&&&&&&&&&&&&&&&&&&&&&&&&&-",
"-&&&&&&&&&&&&&&&&&&&&&&&&&&&&&&&&&&&&&&&&&&&&&&&&&&&&&&&&&&&&&&&&&&&&&&&&&&&&&&&&&&&&&&&&&&&&&&&&&&&&&&&&&&&&&&&&&&&&&&&&&&&&&&-",
"-&&&&&&&&&&&&&&&&&&&&&&&&&&&&&&&&&&&&&&&&&&&&&&&&&&&&&&&&&&&&&&&&&&&&&&&&&&&&&&&&&&&&&&&&&&&&&&&&&&&&&&&&&&&&&&&&&&&&&&&&&&&&&&-",
"-&&&&&&&&&&&&&&&&&&&&&&&&&&&&&&&&&&&&&&&&&&&&&&&&&&&&&&&&&&&&&&&&&&&&&&&&&&&&&&&&&&&&&&&&&&&&&&&&&&&&&&&&&&&&&&&&&&&&&&&&&&&&&&-",
"-&&&&&&&&&&&&&&&&&&&&&&&&&&&&&&&&&&&&&&&&&&&&&&&&&&&&&&&&&&&&&&&&&&&&&&&&&&&&&&&&&&&&&&&&&&&&&&&&&&&&&&&&&&&&&&&&&&&&&&&&&&&&&&-",
"-&&&&&&&&&&&&&&&&&&&&&&&&&&&&&&&&&&&&&&&&&&&&&&&&&&&&&&&&&&&&&&&&&&&&&&&&&&&&&&&&&&&&&&&&&&&&&&&&&&&&&&&&&&&&&&&&&&&&&&&&&&&&&&-",
"-&&&&&&&&&&&&&&&&&&&&&&&&&&&&&&&&&&&&&&&&&&&&&&&&&&&&&&&&&&&&&&&&&&&&&&&&&&&&&&&&&&&&&&&&&&&&&&&&&&&&&&&&&&&&&&&&&&&&&&&&&&&&&&-",
"-&&&&&&&&&&&&&&&&&&&&&&&&&&&&&&&&&&&&&&&&&&&&&&&&&&&&&&&&&&&&&&&&&&&&&&&&&&&&&&&&&&&&&&&&&&&&&&&&&&&&&&&&&&&&&&&&&&&&&&&&&&&&&&-",
"-&&&&&&&&&&&&&&&&&&&&&&&&&&&&&&&&&&&&&&&&&&&&&&&&&&&&&&&&&&&&&&&&&&&&&&&&&&&&&&&&&&&&&&&&&&&&&&&&&&&&&&&&&&&&&&&&&&&&&&&&&&&&&&-",
"-&&&&&&&&&&&&&&&&&&&&&&&&&&&&&&&&&&&&&&&&&&&&&&&&&&&&&&&&&&&&&&&&&&&&&&&&&&&&&&&&&&&&&&&&&&&&&&&&&&&&&&&&&&&&&&&&&&&&&&&&&&&&&&-",
"-&&&&&&&&&&&&&&&&&&&&&&&&&&&&&&&&&&&&&&&&&&&&&&&&&&&&&&&&&&&&&&&&&&&&&&&&&&&&&&&&&&&&&&&&&&&&&&&&&&&&&&&&&&&&&&&&&&&&&&&&&&&&&&-",
"-&&&&&&&&&&&&&&&&&&&&&&&&&&&&&&&&&&&&&&&&&&&&&&&&&&&&&&&&&&&&&&&&&&&&&&&&&&&&&&&&&&&&&&&&&&&&&&&&&&&&&&&&&&&&&&&&&&&&&&&&&&&&&&-",
"-&&&&&&&&&&&&&&&&&&&&&&&&&&&&&&&&&&&&&&&&&&&&&&&&&&&&&&&&&&&&&&&&&&&&&&&&&&&&&&&&&&&&&&&&&&&&&&&&&&&&&&&&&&&&&&&&&&&&&&&&&&&&&&-",
"-&&&&&&&&&&&&&&&&&&&&&&&&&&&&&&&&&&&&&&&&&&&&&&&&&&&&&&&&&&&&&&&&&&&&&&&&&&&&&&&&&&&&&&&&&&&&&&&&&&&&&&&&&&&&&&&&&&&&&&&&&&&&&&-",
"-&&&&&&&&&&&&&&&&&&&&&&&&&&&&&&&&&&&&&&&&&&&&&&&&&&&&&&&&&&&&&&&&&&&&&&&&&&&&&&&&&&&&&&&&&&&&&&&&&&&&&&&&&&&&&&&&&&&&&&&&&&&&&&-",
"-&&&&&&&&&&&&&&&&&&&&&&&&&&&&&&&&&&&&&&&&&&&&&&&&&&&&&&&&&&&&&&&&&&&&&&&&&&&&&&&&&&&&&&&&&&&&&&&&&&&&&&&&&&&&&&&&&&&&&&&&&&&&&&-",
"-&&&&&&&&&&&&&&&&&&&&&&&&&&&&&&&&&&&&&&&&&&&&&&&&&&&&&&&&&&&&&&&&&&&&&&&&&&&&&&&&&&&&&&&&&&&&&&&&&&&&&&&&&&&&&&&&&&&&&&&&&&&&&&-",
"-&&&&&&&&&&&&&&&&&&&&&&&&&&&&&&&&&&&&&&&&&&&&&&&&&&&&&&&&&&&&&&&&&&&&&&&&&&&&&&&&&&&&&&&&&&&&&&&&&&&&&&&&&&&&&&&&&&&&&&&&&&&&&&-",
"=******************************************************************************************************************************=",
"34444444444444444444444444444444444444444444444444444444444444444444444444444444444444444444444444444444444444444444444444444443",
"34444444444444444444444444444444444444444444444444444444444444444444444444444444444444444444444444444444444444444444444444444443",
"34444444444444444444444444444444444444444444444444444444444444444444444444444444444444444444444444444444444444444444444444444443",
"34444444444444444444444444444444444444444444444444444444444444444444444444444444444444444444444444444444444444444444444444444443",
"34444444444444444444444444444444444444444444444444444444444444444444444444444444444444444444444444444444444444444444444444444443",
"34444444444444444444444444444444444444444444444444444444444444444444444444444444444444444444444444444444444444444444444444444443",
"34444444444444444444444444444444444444444444444444444444444444444444444444444444444444444444444444444444444444444444444444444443",
"34444444444444444444444444444444444444444444444444444444444444444444444444444444444444444444444444444444444444444444444444444443",
"34444444444444444444444444444444444444444444444444444444444444444444444444444444444444444444444444444444444444444444444444444443",
"34444444444444444444444444444444444444444444444444444444444444444444444444444444444444444444444444444444444444444444444444444443",
"34444444444444444444444444444444444444444444444444444444444444444444444444444444444444444444444444444444444444444444444444444443",
"34444444444444444444444444444444444444444444444444444444444444444444444444444444444444444444444444444444444444444444444444444443",
"34444444444444444444444444444444444444444444444444444444444444444444444444444444444444444444444444444444444444444444444444444443",
"34444444444444444444444444444444444444444444444444444444444444444444444444444444444444444444444444444444444444444444444444444443",
"34444444444444444444444444444444444444444444444444444444444444444444444444444444444444444444444444444444444444444444444444444443",
"34444444444444444444444444444444444444444444444444444444444444444444444444444444444444444444444444444444444444444444444444444443",
"34444444444444444444444444444444444444444444444444444444444444444444444444444444444444444444444444444444444444444444444444444443",
"34444444444444444444444444444444444444444444444444444444444444444444444444444444444444444444444444444444444444444444444444444443",
"3444444444444444444444444444444444444444444%XXXXXXXXXXXXXXXXXXXXXXXXXX+444444444444444444444444444444444444444444444444444444443",
"344444444444444444444444444444444444444444%                            O44444444444444444444444444444444444444444444444444444443",
"344444444444444444444444444444444444444444                              #4444444444444444444444444444444444444444444444444444443",
"344444444444444444444444444444444444444444                              @4444444444444444444444444444444444444444444444444444443",
"344444444444444444444444444444444444444444                              @4444444444444444444444444444444444444444444444444444443",
"344444444444444444444444444444444444444444                              @4444444444444444444444444444444444444444444444444444443",
"344444444444444444444444444444444444444444                              @4444444444444444444444444444444444444444444444444444443",
"788888888888888888888888888888888888888888                              $8888888888888888888888888888888888888888888888888888887",
"0qqqqqqqqqqqqqqqqqqqqqqqqqqqqqqqqqqqqqqqqq                              5qqqqqqqqqqqqqqqqqqqqqqqqqqqqqqqqqqqqqqqqqqqqqqqqqqqqqq0",
"0qqqqqqqqqqqqqqqqqqqqqqqqqqqqqqqqqqqqqqqqq                             <qqqqqqqqqqqqqqqqqqqqqqqqqqqqqqqqqqqqqqqqqqqqqqqqqqqqqqq0",
"0qqqqqqqqqqqqqqqqqqqqqqqqqqqqqqqqqqqqqqqqq           o,,,,,,,,,,,,,,,,5qqqqqqqqqqqqqqqqqqqqqqqqqqqqqqqqqqqqqqqqqqqqqqqqqqqqqqqq0",
"0qqqqqqqqqqqqqqqqqqqqqqqqqqqqqqqqqqqqqqqqq           ,qqqqqqqqqqqqqqqqqqqqqqqqqqqqqqqqqqqqqqqqqqqqqqqqqqqqqqqqqqqqqqqqqqqqqqqqq0",
"0qqqqqqqqqqqqqqqqqqqqqqqqqqqqqqqqqqqqqqqqq           ,qqqqqqqqqqqqqqqqqqqqqqqqqqqqqqqqqqqqqqqqqqqqqqqqqqqqqqqqqqqqqqqqqqqqqqqqq0",
"0qqqqqqqqqqqqqqqqqqqqqqqqqqqqqqqqqqqqqqqqq           ,qqqqqqqqqqqqqqqqqqqqqqqqqqqqqqqqqqqqqqqqqqqqqqqqqqqqqqqqqqqqqqqqqqqqqqqqq0",
"0qqqqqqqqqqqqqqqqqqqqqqqqqqqqqqqqqqqqqqqqq                           >qqqqqqqqqqqqqqqqqqqqqqqqqqqqqqqqqqqqqqqqqqqqqqqqqqqqqqqqq0",
"0qqqqqqqqqqqqqqqqqqqqqqqqqqqqqqqqqqqqqqqqq                            >qqqqqqqqqqqqqqqqqqqqqqqqqqqqqqqqqqqqqqqqqqqqqqqqqqqqqqqq0",
"0qqqqqqqqqqqqqqqqqqqqqqqqqqqqqqqqqqqqqqqqq                             6qqqqqqqqqqqqqqqqqqqqqqqqqqqqqqqqqqqqqqqqqqqqqqqqqqqqqqq0",
"0qqqqqqqqqqqqqqqqqqqqqqqqqqqqqqqqqqqqqqqqq                             6qqqqqqqqqqqqqqqqqqqqqqqqqqqqqqqqqqqqqqqqqqqqqqqqqqqqqqq0",
"0qqqqqqqqqqqqqqqqqqqqqqqqqqqqqqqqqqqqqqqqq                             6qqqqqqqqqqqqqqqqqqqqqqqqqqqqqqqqqqqqqqqqqqqqqqqqqqqqqqq0",
"0qqqqqqqqqqqqqqqqqqqqqqqqqqqqqqqqqqqqqqqqq                             6qqqqqqqqqqqqqqqqqqqqqqqqqqqqqqqqqqqqqqqqqqqqqqqqqqqqqqq0",
"0qqqqqqqqqqqqqqqqqqqqqqqqqqqqqqqqqqqqqqqqq                             6qqqqqqqqqqqqqqqqqqqqqqqqqqqqqqqqqqqqqqqqqqqqqqqqqqqqqqq0",
"0qqqqqqqqqqqqqqqqqqqqqqqqqqqqqqqqqqqqqqqqq                             6qqqqqqqqqqqqqqqqqqqqqqqqqqqqqqqqqqqqqqqqqqqqqqqqqqqqqqq0",
"0qqqqqqqqqqqqqqqqqqqqqqqqqqqqqqqqqqqqqqqqq                            .9qqqqqqqqqqqqqqqqqqqqqqqqqqqqqqqqqqqqqqqqqqqqqqqqqqqqqqq0",
"0qqqqqqqqqqqqqqqqqqqqqqqqqqqqqqqqqqqqqqqqq                           .9qqqqqqqqqqqqqqqqqqqqqqqqqqqqqqqqqqqqqqqqqqqqqqqqqqqqqqqq0",
"0qqqqqqqqqqqqqqqqqqqqqqqqqqqqqqqqqqqqqqqqq           >6666666666666669qqqqqqqqqqqqqqqqqqqqqqqqqqqqqqqqqqqqqqqqqqqqqqqqqqqqqqqqq0",
"0qqqqqqqqqqqqqqqqqqqqqqqqqqqqqqqqqqqqqqqqq           ,qqqqqqqqqqqqqqqqqqqqqqqqqqqqqqqqqqqqqqqqqqqqqqqqqqqqqqqqqqqqqqqqqqqqqqqqq0",
"0qqqqqqqqqqqqqqqqqqqqqqqqqqqqqqqqqqqqqqqqq           ,qqqqqqqqqqqqqqqqqqqqqqqqqqqqqqqqqqqqqqqqqqqqqqqqqqqqqqqqqqqqqqqqqqqqqqqqq0",
"0qqqqqqqqqqqqqqqqqqqqqqqqqqqqqqqqqqqqqqqqq           ,qqqqqqqqqqqqqqqqqqqqqqqqqqqqqqqqqqqqqqqqqqqqqqqqqqqqqqqqqqqqqqqqqqqqqqqqq0",
"0qqqqqqqqqqqqqqqqqqqqqqqqqqqqqqqqqqqqqqqqq           ,qqqqqqqqqqqqqqqqqqqqqqqqqqqqqqqqqqqqqqqqqqqqqqqqqqqqqqqqqqqqqqqqqqqqqqqqq0",
"0qqqqqqqqqqqqqqqqqqqqqqqqqqqqqqqqqqqqqqqqq           >666666666666666669qqqqqqqqqqqqqqqqqqqqqqqqqqqqqqqqqqqqqqqqqqqqqqqqqqqqqqq0",
"0qqqqqqqqqqqqqqqqqqqqqqqqqqqqqqqqqqqqqqqqq                             .9qqqqqqqqqqqqqqqqqqqqqqqqqqqqqqqqqqqqqqqqqqqqqqqqqqqqqq0",
"0qqqqqqqqqqqqqqqqqqqqqqqqqqqqqqqqqqqqqqqqq                              .9qqqqqqqqqqqqqqqqqqqqqqqqqqqqqqqqqqqqqqqqqqqqqqqqqqqqq0",
"0qqqqqqqqqqqqqqqqqqqqqqqqqqqqqqqqqqqqqqqqq                               6qqqqqqqqqqqqqqqqqqqqqqqqqqqqqqqqqqqqqqqqqqqqqqqqqqqqq0",
"788888888888888888888888888888888888888888                               2888888888888888888888888888888888888888888888888888887",
"344444444444444444444444444444444444444444                               1444444444444444444444444444444444444444444444444444443",
"344444444444444444444444444444444444444444                               1444444444444444444444444444444444444444444444444444443",
"344444444444444444444444444444444444444444                               1444444444444444444444444444444444444444444444444444443",
"344444444444444444444444444444444444444444                               1444444444444444444444444444444444444444444444444444443",
"344444444444444444444444444444444444444444O                             O4444444444444444444444444444444444444444444444444444443",
"3444444444444444444444444444444444444444444O                           O44444444444444444444444444444444444444444444444444444443",
"34444444444444444444444444444444444444444444444444444444444444444444444444444444444444444444444444444444444444444444444444444443",
"34444444444444444444444444444444444444444444444444444444444444444444444444444444444444444444444444444444444444444444444444444443",
"34444444444444444444444444444444444444444444444444444444444444444444444444444444444444444444444444444444444444444444444444444443",
"34444444444444444444444444444444444444444444444444444444444444444444444444444444444444444444444444444444444444444444444444444443",
"34444444444444444444444444444444444444444444444444444444444444444444444444444444444444444444444444444444444444444444444444444443",
"34444444444444444444444444444444444444444444444444444444444444444444444444444444444444444444444444444444444444444444444444444443",
"34444444444444444444444444444444444444444444444444444444444444444444444444444444444444444444444444444444444444444444444444444443",
"34444444444444444444444444444444444444444444444444444444444444444444444444444444444444444444444444444444444444444444444444444443",
"34444444444444444444444444444444444444444444444444444444444444444444444444444444444444444444444444444444444444444444444444444443",
"34444444444444444444444444444444444444444444444444444444444444444444444444444444444444444444444444444444444444444444444444444443",
"34444444444444444444444444444444444444444444444444444444444444444444444444444444444444444444444444444444444444444444444444444443",
"34444444444444444444444444444444444444444444444444444444444444444444444444444444444444444444444444444444444444444444444444444443",
"34444444444444444444444444444444444444444444444444444444444444444444444444444444444444444444444444444444444444444444444444444443",
"34444444444444444444444444444444444444444444444444444444444444444444444444444444444444444444444444444444444444444444444444444443",
"34444444444444444444444444444444444444444444444444444444444444444444444444444444444444444444444444444444444444444444444444444443",
"34444444444444444444444444444444444444444444444444444444444444444444444444444444444444444444444444444444444444444444444444444443",
"34444444444444444444444444444444444444444444444444444444444444444444444444444444444444444444444444444444444444444444444444444443",
"34444444444444444444444444444444444444444444444444444444444444444444444444444444444444444444444444444444444444444444444444444443",
"34444444444444444444444444444444444444444444444444444444444444444444444444444444444444444444444444444444444444444444444444444443",
"=******************************************************************************************************************************=",
"-&&&&&&&&&&&&&&&&&&&&&&&&&&&&&&&&&&&&&&&&&&&&&&&&&&&&&&&&&&&&&&&&&&&&&&&&&&&&&&&&&&&&&&&&&&&&&&&&&&&&&&&&&&&&&&&&&&&&&&&&&&&&&&-",
"-&&&&&&&&&&&&&&&&&&&&&&&&&&&&&&&&&&&&&&&&&&&&&&&&&&&&&&&&&&&&&&&&&&&&&&&&&&&&&&&&&&&&&&&&&&&&&&&&&&&&&&&&&&&&&&&&&&&&&&&&&&&&&&-",
"-&&&&&&&&&&&&&&&&&&&&&&&&&&&&&&&&&&&&&&&&&&&&&&&&&&&&&&&&&&&&&&&&&&&&&&&&&&&&&&&&&&&&&&&&&&&&&&&&&&&&&&&&&&&&&&&&&&&&&&&&&&&&&&-",
"-&&&&&&&&&&&&&&&&&&&&&&&&&&&&&&&&&&&&&&&&&&&&&&&&&&&&&&&&&&&&&&&&&&&&&&&&&&&&&&&&&&&&&&&&&&&&&&&&&&&&&&&&&&&&&&&&&&&&&&&&&&&&&&-",
"-&&&&&&&&&&&&&&&&&&&&&&&&&&&&&&&&&&&&&&&&&&&&&&&&&&&&&&&&&&&&&&&&&&&&&&&&&&&&&&&&&&&&&&&&&&&&&&&&&&&&&&&&&&&&&&&&&&&&&&&&&&&&&&-",
"-&&&&&&&&&&&&&&&&&&&&&&&&&&&&&&&&&&&&&&&&&&&&&&&&&&&&&&&&&&&&&&&&&&&&&&&&&&&&&&&&&&&&&&&&&&&&&&&&&&&&&&&&&&&&&&&&&&&&&&&&&&&&&&-",
"-&&&&&&&&&&&&&&&&&&&&&&&&&&&&&&&&&&&&&&&&&&&&&&&&&&&&&&&&&&&&&&&&&&&&&&&&&&&&&&&&&&&&&&&&&&&&&&&&&&&&&&&&&&&&&&&&&&&&&&&&&&&&&&-",
"-&&&&&&&&&&&&&&&&&&&&&&&&&&&&&&&&&&&&&&&&&&&&&&&&&&&&&&&&&&&&&&&&&&&&&&&&&&&&&&&&&&&&&&&&&&&&&&&&&&&&&&&&&&&&&&&&&&&&&&&&&&&&&&-",
"-&&&&&&&&&&&&&&&&&&&&&&&&&&&&&&&&&&&&&&&&&&&&&&&&&&&&&&&&&&&&&&&&&&&&&&&&&&&&&&&&&&&&&&&&&&&&&&&&&&&&&&&&&&&&&&&&&&&&&&&&&&&&&&-",
"-&&&&&&&&&&&&&&&&&&&&&&&&&&&&&&&&&&&&&&&&&&&&&&&&&&&&&&&&&&&&&&&&&&&&&&&&&&&&&&&&&&&&&&&&&&&&&&&&&&&&&&&&&&&&&&&&&&&&&&&&&&&&&&-",
"-&&&&&&&&&&&&&&&&&&&&&&&&&&&&&&&&&&&&&&&&&&&&&&&&&&&&&&&&&&&&&&&&&&&&&&&&&&&&&&&&&&&&&&&&&&&&&&&&&&&&&&&&&&&&&&&&&&&&&&&&&&&&&&-",
"-&&&&&&&&&&&&&&&&&&&&&&&&&&&&&&&&&&&&&&&&&&&&&&&&&&&&&&&&&&&&&&&&&&&&&&&&&&&&&&&&&&&&&&&&&&&&&&&&&&&&&&&&&&&&&&&&&&&&&&&&&&&&&&-",
"-&&&&&&&&&&&&&&&&&&&&&&&&&&&&&&&&&&&&&&&&&&&&&&&&&&&&&&&&&&&&&&&&&&&&&&&&&&&&&&&&&&&&&&&&&&&&&&&&&&&&&&&&&&&&&&&&&&&&&&&&&&&&&&-",
"-&&&&&&&&&&&&&&&&&&&&&&&&&&&&&&&&&&&&&&&&&&&&&&&&&&&&&&&&&&&&&&&&&&&&&&&&&&&&&&&&&&&&&&&&&&&&&&&&&&&&&&&&&&&&&&&&&&&&&&&&&&&&&&-",
"-&&&&&&&&&&&&&&&&&&&&&&&&&&&&&&&&&&&&&&&&&&&&&&&&&&&&&&&&&&&&&&&&&&&&&&&&&&&&&&&&&&&&&&&&&&&&&&&&&&&&&&&&&&&&&&&&&&&&&&&&&&&&&&-",
"-&&&&&&&&&&&&&&&&&&&&&&&&&&&&&&&&&&&&&&&&&&&&&&&&&&&&&&&&&&&&&&&&&&&&&&&&&&&&&&&&&&&&&&&&&&&&&&&&&&&&&&&&&&&&&&&&&&&&&&&&&&&&&&-",
"-&&&&&&&&&&&&&&&&&&&&&&&&&&&&&&&&&&&&&&&&&&&&&&&&&&&&&&&&&&&&&&&&&&&&&&&&&&&&&&&&&&&&&&&&&&&&&&&&&&&&&&&&&&&&&&&&&&&&&&&&&&&&&&-",
"-&&&&&&&&&&&&&&&&&&&&&&&&&&&&&&&&&&&&&&&&&&&&&&&&&&&&&&&&&&&&&&&&&&&&&&&&&&&&&&&&&&&&&&&&&&&&&&&&&&&&&&&&&&&&&&&&&&&&&&&&&&&&&&-",
"-&&&&&&&&&&&&&&&&&&&&&&&&&&&&&&&&&&&&&&&&&&&&&&&&&&&&&&&&&&&&&&&&&&&&&&&&&&&&&&&&&&&&&&&&&&&&&&&&&&&&&&&&&&&&&&&&&&&&&&&&&&&&&&-",
"-&&&&&&&&&&&&&&&&&&&&&&&&&&&&&&&&&&&&&&&&&&&&&&&&&&&&&&&&&&&&&&&&&&&&&&&&&&&&&&&&&&&&&&&&&&&&&&&&&&&&&&&&&&&&&&&&&&&&&&&&&&&&&&-",
"-&&&&&&&&&&&&&&&&&&&&&&&&&&&&&&&&&&&&&&&&&&&&&&&&&&&&&&&&&&&&&&&&&&&&&&&&&&&&&&&&&&&&&&&&&&&&&&&&&&&&&&&&&&&&&&&&&&&&&&&&&&&&&&-",
"-&&&&&&&&&&&&&&&&&&&&&&&&&&&&&&&&&&&&&&&&&&&&&&&&&&&&&&&&&&&&&&&&&&&&&&&&&&&&&&&&&&&&&&&&&&&&&&&&&&&&&&&&&&&&&&&&&&&&&&&&&&&&&&-",
"-&&&&&&&&&&&&&&&&&&&&&&&&&&&&&&&&&&&&&&&&&&&&&&&&&&&&&&&&&&&&&&&&&&&&&&&&&&&&&&&&&&&&&&&&&&&&&&&&&&&&&&&&&&&&&&&&&&&&&&&&&&&&&&-",
"-&&&&&&&&&&&&&&&&&&&&&&&&&&&&&&&&&&&&&&&&&&&&&&&&&&&&&&&&&&&&&&&&&&&&&&&&&&&&&&&&&&&&&&&&&&&&&&&&&&&&&&&&&&&&&&&&&&&&&&&&&&&&&&-"
};
