/* XPM */
static char *c0f235d94c39414581120d7bf2da69fcPsKJwjigE5MohOcY[] = {
/* columns rows colors chars-per-pixel */
"128 128 52 1 ",
"  c black",
". c #000D01",
"X c #001B03",
"o c #002604",
"O c #003007",
"+ c #013909",
"@ c #242100",
"# c #3F3A00",
"$ c #01410C",
"% c #01490E",
"& c #015011",
"* c #015713",
"= c #015D15",
"- c #016A19",
"; c #02701B",
": c #027C1F",
"> c #027E2E",
", c #544E00",
"< c #675F00",
"1 c #786F00",
"2 c #E50000",
"3 c #E60900",
"4 c #E81200",
"5 c #E81B00",
"6 c #877E00",
"7 c #F44F00",
"8 c #F45600",
"9 c #028121",
"0 c #968B00",
"q c #A39700",
"w c #B0A400",
"e c #BCAF00",
"r c #FF8D00",
"t c #FE9200",
"y c #C8BB00",
"u c #FBA701",
"i c orange",
"p c #D4C600",
"a c #DFD000",
"s c #F0E703",
"d c #F5E400",
"f c #FFEE00",
"g c #770088",
"h c #7F0F8F",
"j c #075AB9",
"k c #015DB9",
"l c #2C30D3",
"z c #3433D1",
"x c #004CFF",
"c c #0849F8",
"v c #881F96",
"b c #8F2D9D",
/* pixels */
"54444444444444444444444444444444444444444444444444444444444444444444444444444444444444444444444444444444444444444444444444444445",
"32222222222222222222222222222222222222222222222222222222222222222222222222222222222222222222222222222222222222222222222222222223",
"32222222222222222222222222222222222222222222222222222222222222222222222222222222222222222222222222222222222222222222222222222223",
"32222222222222222222222222222222222222222222222222222222222222222222222222222222222222222222222222222222222222222222222222222223",
"32222222222222222222222222222222222222222222222222222222222222222222222222222222222222222222222222222222222222222222222222222223",
"32222222222222222222222222222222222222222222222222222222222222222222222222222222222222222222222222222222222222222222222222222223",
"32222222222222222222222222222222222222222222222222222222222222222222222222222222222222222222222222222222222222222222222222222223",
"32222222222222222222222222222222222222222222222222222222222222222222222222222222222222222222222222222222222222222222222222222223",
"32222222222222222222222222222222222222222222222222222222222222222222222222222222222222222222222222222222222222222222222222222223",
"32222222222222222222222222222222222222222222222222222222222222222222222222222222222222222222222222222222222222222222222222222223",
"32222222222222222222222222222222222222222222222222222222222222222222222222222222222222222222222222222222222222222222222222222223",
"32222222222222222222222222222222222222222222222222222222222222222222222222222222222222222222222222222222222222222222222222222223",
"32222222222222222222222222222222222222222222222222222222222222222222222222222222222222222222222222222222222222222222222222222223",
"32222222222222222222222222222222222222222222222222222222222222222222222222222222222222222222222222222222222222222222222222222223",
"32222222222222222222222222222222222222222222222222222222222222222222222222222222222222222222222222222222222222222222222222222223",
"32222222222222222222222222222222222222222222222222222222222222222222222222222222222222222222222222222222222222222222222222222223",
"32222222222222222222222222222222222222222222222222222222222222222222222222222222222222222222222222222222222222222222222222222223",
"32222222222222222222222222222222222222222222222222222222222222222222222222222222222222222222222222222222222222222222222222222223",
"32222222222222222222222222222222222222222222222222222222222222222222222222222222222222222222222222222222222222222222222222222223",
"32222222222222222222222222222222222222222222222222222222222222222222222222222222222222222222222222222222222222222222222222222223",
"32222222222222222222222222222222222222222222222222222222222222222222222222222222222222222222222222222222222222222222222222222223",
"87777777777777777777777777777777777777777777777777777777777777777777777777777777777777777777777777777777777777777777777777777778",
"trrrrrrrrrrrrrrrrrrrrrrrrrrrrrrrrrrrrrrrrrrrrrrrrrrrrrrrrrrrrrrrrrrrrrrrrrrrrrrrrrrrrrrrrrrrrrrrrrrrrrrrrrrrrrrrrrrrrrrrrrrrrrrt",
"trrrrrrrrrrrrrrrrrrrrrrrrrrrrrrrrrrrrrrrrrrrrrrrrrrrrrrrrrrrrrrrrrrrrrrrrrrrrrrrrrrrrrrrrrrrrrrrrrrrrrrrrrrrrrrrrrrrrrrrrrrrrrrt",
"trrrrrrrrrrrrrrrrrrrrrrrrrrrrrrrrrrrrrrrrrrrrrrrrrrrrrrrrrrrrrrrrrrrrrrrrrrrrrrrrrrrrrrrrrrrrrrrrrrrrrrrrrrrrrrrrrrrrrrrrrrrrrrt",
"trrrrrrrrrrrrrrrrrrrrrrrrrrrrrrrrrrrrrrrrrrrrrrrrrrrrrrrrrrrrrrrrrrrrrrrrrrrrrrrrrrrrrrrrrrrrrrrrrrrrrrrrrrrrrrrrrrrrrrrrrrrrrrt",
"trrrrrrrrrrrrrrrrrrrrrrrrrrrrrrrrrrrrrrrrrrrrrrrrrrrrrrrrrrrrrrrrrrrrrrrrrrrrrrrrrrrrrrrrrrrrrrrrrrrrrrrrrrrrrrrrrrrrrrrrrrrrrrt",
"trrrrrrrrrrrrrrrrrrrrrrrrrrrrrrrrrrrrrrrrrrrrrrrrrrrrrrrrrrrrrrrrrrrrrrrrrrrrrrrrrrrrrrrrrrrrrrrrrrrrrrrrrrrrrrrrrrrrrrrrrrrrrrt",
"trrrrrrrrrrrrrrrrrrrrrrrrrrrrrrrrrrrrrrrrrrrrrrrrrrrrrrrrrrrrrrrrrrrrrrrrrrrrrrrrrrrrrrrrrrrrrrrrrrrrrrrrrrrrrrrrrrrrrrrrrrrrrrt",
"trrrrrrrrrrrrrrrrrrrrrrrrrrrrrrrrrrrrrrrrrrrrrrrrrrrrrrrrrrrrrrrrrrrrrrrrrrrrrrrrrrrrrrrrrrrrrrrrrrrrrrrrrrrrrrrrrrrrrrrrrrrrrrt",
"trrrrrrrrrrrrrrrrrrrrrrrrrrrrrrrrrrrrrrrrrrrrrrrrrrrrrrrrrrrrrrrrrrrrrrrrrrrrrrrrrrrrrrrrrrrrrrrrrrrrrrrrrrrrrrrrrrrrrrrrrrrrrrt",
"trrrrrrrrrrrrrrrrrrrrrrrrrrrrrrrrrrrrrrrrrrrrrrrrrrrrrrrrrrrrrrrrrrrrrrrrrrrrrrrrrrrrrrrrrrrrrrrrrrrrrrrrrrrrrrrrrrrrrrrrrrrrrrt",
"trrrrrrrrrrrrrrrrrrrrrrrrrrrrrrrrrrrrrrrrrrrrrrrrrrrrrrrrrrrrrrrrrrrrrrrrrrrrrrrrrrrrrrrrrrrrrrrrrrrrrrrrrrrrrrrrrrrrrrrrrrrrrrt",
"trrrrrrrrrrrrrrrrrrrrrrrrrrrrrrrrrrrrrrrrrrrrrrrrrrrrrrrrrrrrrrrrrrrrrrrrrrrrrrrrrrrrrrrrrrrrrrrrrrrrrrrrrrrrrrrrrrrrrrrrrrrrrrt",
"trrrrrrrrrrrrrrrrrrrrrrrrrrrrrrrrrrrrrrrrrrrrrrrrrrrrrrrrrrrrrrrrrrrrrrrrrrrrrrrrrrrrrrrrrrrrrrrrrrrrrrrrrrrrrrrrrrrrrrrrrrrrrrt",
"trrrrrrrrrrrrrrrrrrrrrrrrrrrrrrrrrrrrrrrrrrrrrrrrrrrrrrrrrrrrrrrrrrrrrrrrrrrrrrrrrrrrrrrrrrrrrrrrrrrrrrrrrrrrrrrrrrrrrrrrrrrrrrt",
"trrrrrrrrrrrrrrrrrrrrrrrrrrrrrrrrrrrrrrrrrrrrrrrrrrrrrrrrrrrrrrrrrrrrrrrrrrrrrrrrrrrrrrrrrrrrrrrrrrrrrrrrrrrrrrrrrrrrrrrrrrrrrrt",
"trrrrrrrrrrrrrrrrrrrrrrrrrrrrrrrrrrrrrrrrrrrrrrrrrrrrrrrrrrrrrrrrrrrrrrrrrrrrrrrrrrrrrrrrrrrrrrrrrrrrrrrrrrrrrrrrrrrrrrrrrrrrrrt",
"trrrrrrrrrrrrrrrrrrrrrrrrrrrrrrrrrrrrrrrrrrrrrrrrrrrrrrrrrrrrrrrrrrrrrrrrrrrrrrrrrrrrrrrrrrrrrrrrrrrrrrrrrrrrrrrrrrrrrrrrrrrrrrt",
"trrrrrrrrrrrrrrrrrrrrrrrrrrrrrrrrrrrrrrrrrrrrrrrrrrrrrrrrrrrrrrrrrrrrrrrrrrrrrrrrrrrrrrrrrrrrrrrrrrrrrrrrrrrrrrrrrrrrrrrrrrrrrrt",
"trrrrrrrrrrrrrrrrrrrrrrrrrrrrrrrrrrrrrrrrrrrrrrrrrrrrrrrrrrrrrrrrrrrrrrrrrrrrrrrrrrrrrrrrrrrrrrrrrrrrrrrrrrrrrrrrrrrrrrrrrrrrrrt",
"trrrrrrrrrrrrrrrrrrrrrrrrrrrrrrrrrrrrrrrrrrrrrrrrrrrrrrrrrrrrrrrrrrrrrrrrrrrrrrrrrrrrrrrrrrrrrrrrrrrrrrrrrrrrrrrrrrrrrrrrrrrrrrt",
"uiiiiiiiiiiiiiiiiiiiiiiiiiiiiiiiiiiiiiiiiiiiiiiiiiiiiiiiiiiiiiiiiiiiiiiiiiiiiiiiiiiiiiiiiiiiiiiiiiiiiiiiiiiiiiiiiiiiiiiiiiiiiiiu",
"sffffffffffffffffffffffffffffffffffffffffffffffffffffffffffffffffffffffffffffffffffffffffffffffffffffffffffffffffffffffffffffffs",
"sfffffffffffffffffffffffffffffffffffffffffffffe<<<<<<<<0fffffffffffd1<<<<<<1dffffffffffffffffffffffffffffffffffffffffffffffffffs",
"sffffffffffffffffffffffffffffffffffffffffffffe          yfffffffffd,        ,dfffffffffffffffffffffffffffffffffffffffffffffffffs",
"sffffffffffffffffffffffffffffffffffffffffffff           #dffffffffq          1fffffffffffffffffffffffffffffffffffffffffffffffffs",
"sffffffffffffffffffffffffffffffffffffffffffff            0ffffffffq          <fffffffffffffffffffffffffffffffffffffffffffffffffs",
"sffffffffffffffffffffffffffffffffffffffffffff             afffffffq          <fffffffffffffffffffffffffffffffffffffffffffffffffs",
"sffffffffffffffffffffffffffffffffffffffffffff             ,fffffffq          <fffffffffffffffffffffffffffffffffffffffffffffffffs",
"sffffffffffffffffffffffffffffffffffffffffffff              wffffffq          <fffffffffffffffffffffffffffffffffffffffffffffffffs",
"sffffffffffffffffffffffffffffffffffffffffffff              @dfffffq          <fffffffffffffffffffffffffffffffffffffffffffffffffs",
"sffffffffffffffffffffffffffffffffffffffffffff               1fffffq          <fffffffffffffffffffffffffffffffffffffffffffffffffs",
"sffffffffffffffffffffffffffffffffffffffffffff                pffffq          <fffffffffffffffffffffffffffffffffffffffffffffffffs",
"sffffffffffffffffffffffffffffffffffffffffffff                #dfffq          <fffffffffffffffffffffffffffffffffffffffffffffffffs",
"sffffffffffffffffffffffffffffffffffffffffffff                 qfffq          <fffffffffffffffffffffffffffffffffffffffffffffffffs",
"sffffffffffffffffffffffffffffffffffffffffffff                  affq          <fffffffffffffffffffffffffffffffffffffffffffffffffs",
"sffffffffffffffffffffffffffffffffffffffffffff                  <ffq          <fffffffffffffffffffffffffffffffffffffffffffffffffs",
"sffffffffffffffffffffffffffffffffffffffffffff                   efq          <fffffffffffffffffffffffffffffffffffffffffffffffffs",
"sffffffffffffffffffffffffffffffffffffffffffff                   @dq          <fffffffffffffffffffffffffffffffffffffffffffffffffs",
"sffffffffffffffffffffffffffffffffffffffffffff                    6q          <fffffffffffffffffffffffffffffffffffffffffffffffffs",
"sffffffffffffffffffffffffffffffffffffffffffff                     <          <fffffffffffffffffffffffffffffffffffffffffffffffffs",
"sffffffffffffffffffffffffffffffffffffffffffff                                <fffffffffffffffffffffffffffffffffffffffffffffffffs",
"sffffffffffffffffffffffffffffffffffffffffffff                                <fffffffffffffffffffffffffffffffffffffffffffffffffs",
">99999999999999999999999999999999999999999999                                O9999999999999999999999999999999999999999999999999>",
">99999999999999999999999999999999999999999999                                O9999999999999999999999999999999999999999999999999>",
">99999999999999999999999999999999999999999999                                O9999999999999999999999999999999999999999999999999>",
">99999999999999999999999999999999999999999999           O                    O9999999999999999999999999999999999999999999999999>",
">99999999999999999999999999999999999999999999           -X                   O9999999999999999999999999999999999999999999999999>",
">99999999999999999999999999999999999999999999           --                   O9999999999999999999999999999999999999999999999999>",
">99999999999999999999999999999999999999999999           -9$                  O9999999999999999999999999999999999999999999999999>",
">99999999999999999999999999999999999999999999           -9:.                 O9999999999999999999999999999999999999999999999999>",
">99999999999999999999999999999999999999999999           -99=                 O9999999999999999999999999999999999999999999999999>",
">99999999999999999999999999999999999999999999           -999O                O9999999999999999999999999999999999999999999999999>",
">99999999999999999999999999999999999999999999           -999;                O9999999999999999999999999999999999999999999999999>",
">99999999999999999999999999999999999999999999           -9999&               O9999999999999999999999999999999999999999999999999>",
">99999999999999999999999999999999999999999999           -9999:X              O9999999999999999999999999999999999999999999999999>",
">99999999999999999999999999999999999999999999           -99999-              O9999999999999999999999999999999999999999999999999>",
">99999999999999999999999999999999999999999999           -999999+             O9999999999999999999999999999999999999999999999999>",
">99999999999999999999999999999999999999999999           -999999:.            O9999999999999999999999999999999999999999999999999>",
">99999999999999999999999999999999999999999999           -9999999*            O9999999999999999999999999999999999999999999999999>",
">99999999999999999999999999999999999999999999           -99999999o           O9999999999999999999999999999999999999999999999999>",
">99999999999999999999999999999999999999999999$         $999999999;          .;9999999999999999999999999999999999999999999999999>",
">999999999999999999999999999999999999999999999$       $99999999999%        .;99999999999999999999999999999999999999999999999999>",
">999999999999999999999999999999999999999999999999999999999999999999999999999999999999999999999999999999999999999999999999999999>",
"jkkkkkkkkkkkkkkkkkkkkkkkkkkkkkkkkkkkkkkkkkkkkkkkkkkkkkkkkkkkkkkkkkkkkkkkkkkkkkkkkkkkkkkkkkkkkkkkkkkkkkkkkkkkkkkkkkkkkkkkkkkkkkkj",
"cxxxxxxxxxxxxxxxxxxxxxxxxxxxxxxxxxxxxxxxxxxxxxxxxxxxxxxxxxxxxxxxxxxxxxxxxxxxxxxxxxxxxxxxxxxxxxxxxxxxxxxxxxxxxxxxxxxxxxxxxxxxxxxc",
"cxxxxxxxxxxxxxxxxxxxxxxxxxxxxxxxxxxxxxxxxxxxxxxxxxxxxxxxxxxxxxxxxxxxxxxxxxxxxxxxxxxxxxxxxxxxxxxxxxxxxxxxxxxxxxxxxxxxxxxxxxxxxxxc",
"cxxxxxxxxxxxxxxxxxxxxxxxxxxxxxxxxxxxxxxxxxxxxxxxxxxxxxxxxxxxxxxxxxxxxxxxxxxxxxxxxxxxxxxxxxxxxxxxxxxxxxxxxxxxxxxxxxxxxxxxxxxxxxxc",
"cxxxxxxxxxxxxxxxxxxxxxxxxxxxxxxxxxxxxxxxxxxxxxxxxxxxxxxxxxxxxxxxxxxxxxxxxxxxxxxxxxxxxxxxxxxxxxxxxxxxxxxxxxxxxxxxxxxxxxxxxxxxxxxc",
"cxxxxxxxxxxxxxxxxxxxxxxxxxxxxxxxxxxxxxxxxxxxxxxxxxxxxxxxxxxxxxxxxxxxxxxxxxxxxxxxxxxxxxxxxxxxxxxxxxxxxxxxxxxxxxxxxxxxxxxxxxxxxxxc",
"cxxxxxxxxxxxxxxxxxxxxxxxxxxxxxxxxxxxxxxxxxxxxxxxxxxxxxxxxxxxxxxxxxxxxxxxxxxxxxxxxxxxxxxxxxxxxxxxxxxxxxxxxxxxxxxxxxxxxxxxxxxxxxxc",
"cxxxxxxxxxxxxxxxxxxxxxxxxxxxxxxxxxxxxxxxxxxxxxxxxxxxxxxxxxxxxxxxxxxxxxxxxxxxxxxxxxxxxxxxxxxxxxxxxxxxxxxxxxxxxxxxxxxxxxxxxxxxxxxc",
"cxxxxxxxxxxxxxxxxxxxxxxxxxxxxxxxxxxxxxxxxxxxxxxxxxxxxxxxxxxxxxxxxxxxxxxxxxxxxxxxxxxxxxxxxxxxxxxxxxxxxxxxxxxxxxxxxxxxxxxxxxxxxxxc",
"cxxxxxxxxxxxxxxxxxxxxxxxxxxxxxxxxxxxxxxxxxxxxxxxxxxxxxxxxxxxxxxxxxxxxxxxxxxxxxxxxxxxxxxxxxxxxxxxxxxxxxxxxxxxxxxxxxxxxxxxxxxxxxxc",
"cxxxxxxxxxxxxxxxxxxxxxxxxxxxxxxxxxxxxxxxxxxxxxxxxxxxxxxxxxxxxxxxxxxxxxxxxxxxxxxxxxxxxxxxxxxxxxxxxxxxxxxxxxxxxxxxxxxxxxxxxxxxxxxc",
"cxxxxxxxxxxxxxxxxxxxxxxxxxxxxxxxxxxxxxxxxxxxxxxxxxxxxxxxxxxxxxxxxxxxxxxxxxxxxxxxxxxxxxxxxxxxxxxxxxxxxxxxxxxxxxxxxxxxxxxxxxxxxxxc",
"cxxxxxxxxxxxxxxxxxxxxxxxxxxxxxxxxxxxxxxxxxxxxxxxxxxxxxxxxxxxxxxxxxxxxxxxxxxxxxxxxxxxxxxxxxxxxxxxxxxxxxxxxxxxxxxxxxxxxxxxxxxxxxxc",
"cxxxxxxxxxxxxxxxxxxxxxxxxxxxxxxxxxxxxxxxxxxxxxxxxxxxxxxxxxxxxxxxxxxxxxxxxxxxxxxxxxxxxxxxxxxxxxxxxxxxxxxxxxxxxxxxxxxxxxxxxxxxxxxc",
"cxxxxxxxxxxxxxxxxxxxxxxxxxxxxxxxxxxxxxxxxxxxxxxxxxxxxxxxxxxxxxxxxxxxxxxxxxxxxxxxxxxxxxxxxxxxxxxxxxxxxxxxxxxxxxxxxxxxxxxxxxxxxxxc",
"cxxxxxxxxxxxxxxxxxxxxxxxxxxxxxxxxxxxxxxxxxxxxxxxxxxxxxxxxxxxxxxxxxxxxxxxxxxxxxxxxxxxxxxxxxxxxxxxxxxxxxxxxxxxxxxxxxxxxxxxxxxxxxxc",
"cxxxxxxxxxxxxxxxxxxxxxxxxxxxxxxxxxxxxxxxxxxxxxxxxxxxxxxxxxxxxxxxxxxxxxxxxxxxxxxxxxxxxxxxxxxxxxxxxxxxxxxxxxxxxxxxxxxxxxxxxxxxxxxc",
"cxxxxxxxxxxxxxxxxxxxxxxxxxxxxxxxxxxxxxxxxxxxxxxxxxxxxxxxxxxxxxxxxxxxxxxxxxxxxxxxxxxxxxxxxxxxxxxxxxxxxxxxxxxxxxxxxxxxxxxxxxxxxxxc",
"cxxxxxxxxxxxxxxxxxxxxxxxxxxxxxxxxxxxxxxxxxxxxxxxxxxxxxxxxxxxxxxxxxxxxxxxxxxxxxxxxxxxxxxxxxxxxxxxxxxxxxxxxxxxxxxxxxxxxxxxxxxxxxxc",
"cxxxxxxxxxxxxxxxxxxxxxxxxxxxxxxxxxxxxxxxxxxxxxxxxxxxxxxxxxxxxxxxxxxxxxxxxxxxxxxxxxxxxxxxxxxxxxxxxxxxxxxxxxxxxxxxxxxxxxxxxxxxxxxc",
"cxxxxxxxxxxxxxxxxxxxxxxxxxxxxxxxxxxxxxxxxxxxxxxxxxxxxxxxxxxxxxxxxxxxxxxxxxxxxxxxxxxxxxxxxxxxxxxxxxxxxxxxxxxxxxxxxxxxxxxxxxxxxxxc",
"zllllllllllllllllllllllllllllllllllllllllllllllllllllllllllllllllllllllllllllllllllllllllllllllllllllllllllllllllllllllllllllllz",
"hggggggggggggggggggggggggggggggggggggggggggggggggggggggggggggggggggggggggggggggggggggggggggggggggggggggggggggggggggggggggggggggh",
"hggggggggggggggggggggggggggggggggggggggggggggggggggggggggggggggggggggggggggggggggggggggggggggggggggggggggggggggggggggggggggggggh",
"hggggggggggggggggggggggggggggggggggggggggggggggggggggggggggggggggggggggggggggggggggggggggggggggggggggggggggggggggggggggggggggggh",
"hggggggggggggggggggggggggggggggggggggggggggggggggggggggggggggggggggggggggggggggggggggggggggggggggggggggggggggggggggggggggggggggh",
"hggggggggggggggggggggggggggggggggggggggggggggggggggggggggggggggggggggggggggggggggggggggggggggggggggggggggggggggggggggggggggggggh",
"hggggggggggggggggggggggggggggggggggggggggggggggggggggggggggggggggggggggggggggggggggggggggggggggggggggggggggggggggggggggggggggggh",
"hggggggggggggggggggggggggggggggggggggggggggggggggggggggggggggggggggggggggggggggggggggggggggggggggggggggggggggggggggggggggggggggh",
"hggggggggggggggggggggggggggggggggggggggggggggggggggggggggggggggggggggggggggggggggggggggggggggggggggggggggggggggggggggggggggggggh",
"hggggggggggggggggggggggggggggggggggggggggggggggggggggggggggggggggggggggggggggggggggggggggggggggggggggggggggggggggggggggggggggggh",
"hggggggggggggggggggggggggggggggggggggggggggggggggggggggggggggggggggggggggggggggggggggggggggggggggggggggggggggggggggggggggggggggh",
"hggggggggggggggggggggggggggggggggggggggggggggggggggggggggggggggggggggggggggggggggggggggggggggggggggggggggggggggggggggggggggggggh",
"hggggggggggggggggggggggggggggggggggggggggggggggggggggggggggggggggggggggggggggggggggggggggggggggggggggggggggggggggggggggggggggggh",
"hggggggggggggggggggggggggggggggggggggggggggggggggggggggggggggggggggggggggggggggggggggggggggggggggggggggggggggggggggggggggggggggh",
"hggggggggggggggggggggggggggggggggggggggggggggggggggggggggggggggggggggggggggggggggggggggggggggggggggggggggggggggggggggggggggggggh",
"hggggggggggggggggggggggggggggggggggggggggggggggggggggggggggggggggggggggggggggggggggggggggggggggggggggggggggggggggggggggggggggggh",
"hggggggggggggggggggggggggggggggggggggggggggggggggggggggggggggggggggggggggggggggggggggggggggggggggggggggggggggggggggggggggggggggh",
"hggggggggggggggggggggggggggggggggggggggggggggggggggggggggggggggggggggggggggggggggggggggggggggggggggggggggggggggggggggggggggggggh",
"hggggggggggggggggggggggggggggggggggggggggggggggggggggggggggggggggggggggggggggggggggggggggggggggggggggggggggggggggggggggggggggggh",
"hggggggggggggggggggggggggggggggggggggggggggggggggggggggggggggggggggggggggggggggggggggggggggggggggggggggggggggggggggggggggggggggh",
"hggggggggggggggggggggggggggggggggggggggggggggggggggggggggggggggggggggggggggggggggggggggggggggggggggggggggggggggggggggggggggggggh",
"bvvvvvvvvvvvvvvvvvvvvvvvvvvvvvvvvvvvvvvvvvvvvvvvvvvvvvvvvvvvvvvvvvvvvvvvvvvvvvvvvvvvvvvvvvvvvvvvvvvvvvvvvvvvvvvvvvvvvvvvvvvvvvvb"
};
