/* XPM */
static char *_65bb3bd01b14a5ed6f14b477cc01ae3fFgzNMFxbTn84QiX[] = {
/* columns rows colors chars-per-pixel */
"128 128 64 1 ",
"  c black",
". c #240000",
"X c #3F0000",
"o c #3F1A00",
"O c #242400",
"+ c #3F3E00",
"@ c #2F2F2F",
"# c #540000",
"$ c #670000",
"% c #780000",
"& c #672000",
"* c #783900",
"= c #675400",
"- c #870000",
"; c #960000",
": c #A30000",
"> c #B00000",
", c #BC0000",
"< c #BC0900",
"1 c #872E00",
"2 c #C80000",
"3 c #D40000",
"4 c #DF0000",
"5 c #D2090A",
"6 c #DF0D0D",
"7 c #EA0000",
"8 c #E80B0D",
"9 c #F50000",
"0 c red",
"q c #FD0D0F",
"w c #FF1A00",
"e c #D43E00",
"r c #FF3000",
"t c #FF2F2F",
"y c #E53636",
"u c #F9363C",
"i c #966600",
"p c #D44000",
"a c #C85400",
"s c #FF4100",
"d c #FF4800",
"f c #C86E00",
"g c #FF7100",
"h c #878700",
"j c #969100",
"k c #969600",
"l c #A39C00",
"z c #B0B000",
"x c #FF9900",
"c c #FFA000",
"v c #D4CC00",
"b c #DFDF00",
"n c #FFCF00",
"m c #FFD000",
"M c #FFE000",
"N c #F5EC00",
"B c #FFEA00",
"V c #FFED00",
"C c #F5F500",
"Z c yellow",
"A c blue",
"S c #2F2FFF",
"D c #4F4FFF",
"F c #7070FF",
/* pixels */
"FDDDDDDDDDDDDDDDDDDDDDDDDDDDDDDDDDDDDDDDDDDDDDDDDDDDDDDDDDDDDDDDDDDDDDDDDDDDDDDDDDDDDDDDDDDDDDDDDDDDDDDDDDDDDDDDDDDDDDDDDDDDDDDF",
"SAAAAAAAAAAAAAAAAAAAAAAAAAAAAAAAAAAAAAAAAAAAAAAAAAAAAAAAAAAAAAAAAAAAAAAAAAAAAAAAAAAAAAAAAAAAAAAAAAAAAAAAAAAAAAAAAAAAAAAAAAAAAAAS",
"SAAAAAAAAAAAAAAAAAAAAAAAAAAAAAAAAAAAAAAAAAAAAAAAAAAAAAAAAAAAAAAAAAAAAAAAAAAAAAAAAAAAAAAAAAAAAAAAAAAAAAAAAAAAAAAAAAAAAAAAAAAAAAAS",
"SAAAAAAAAAAAAAAAAAAAAAAAAAAAAAAAAAAAAAAAAAAAAAAAAAAAAAAAAAAAAAAAAAAAAAAAAAAAAAAAAAAAAAAAAAAAAAAAAAAAAAAAAAAAAAAAAAAAAAAAAAAAAAAS",
"SAAAAAAAAAAAAAAAAAAAAAAAAAAAAAAAAAAAAAAAAAAAAAAAAAAAAAAAAAAAAAAAAAAAAAAAAAAAAAAAAAAAAAAAAAAAAAAAAAAAAAAAAAAAAAAAAAAAAAAAAAAAAAAS",
"SAAAAAAAAAAAAAAAAAAAAAAAAAAAAAAAAAAAAAAAAAAAAAAAAAAAAAAAAAAAAAAAAAAAAAAAAAAAAAAAAAAAAAAAAAAAAAAAAAAAAAAAAAAAAAAAAAAAAAAAAAAAAAAS",
"SAAAAAAAAAAAAAAAAAAAAAAAAAAAAAAAAAAAAAAAAAAAAAAAAAAAAAAAAAAAAAAAAAAAAAAAAAAAAAAAAAAAAAAAAAAAAAAAAAAAAAAAAAAAAAAAAAAAAAAAAAAAAAAS",
"SAAAAAAAAAAAAAAAAAAAAAAAAAAAAAAAAAAAAAAAAAAAAAAAAAAAAAAAAAAAAAAAAAAAAAAAAAAAAAAAAAAAAAAAAAAAAAAAAAAAAAAAAAAAAAAAAAAAAAAAAAAAAAAS",
"SAAAAAAAAAAAAAAAAAAAAAAAAAAAAAAAAAAAAAAAAAAAAAAAAAAAAAAAAAAAAAAAAAAAAAAAAAAAAAAAAAAAAAAAAAAAAAAAAAAAAAAAAAAAAAAAAAAAAAAAAAAAAAAS",
"SAAAAAAAAAAAAAAAAAAAAAAAAAAAAAAAAAAAAAAAAAAAAAAAAAAAAAAAAAAAAAAAAAAAAAAAAAAAAAAAAAAAAAAAAAAAAAAAAAAAAAAAAAAAAAAAAAAAAAAAAAAAAAAS",
"SAAAAAAAAAAAAAAAAAAAAAAAAAAAAAAAAAAAAAAAAAAAAAAAAAAAAAAAAAAAAAAAAAAAAAAAAAAAAAAAAAAAAAAAAAAAAAAAAAAAAAAAAAAAAAAAAAAAAAAAAAAAAAAS",
"SAAAAAAAAAAAAAAAAAAAAAAAAAAAAAAAAAAAAAAAAAAAAAAAAAAAAAAAAAAAAAAAAAAAAAAAAAAAAAAAAAAAAAAAAAAAAAAAAAAAAAAAAAAAAAAAAAAAAAAAAAAAAAAS",
"SAAAAAAAAAAAAAAAAAAAAAAAAAAAAAAAAAAAAAAAAAAAAAAAAAAAAAAAAAAAAAAAAAAAAAAAAAAAAAAAAAAAAAAAAAAAAAAAAAAAAAAAAAAAAAAAAAAAAAAAAAAAAAAS",
"SAAAAAAAAAAAAAAAAAAAAAAAAAAAAAAAAAAAAAAAAAAAAAAAAAAAAAAAAAAAAAAAAAAAAAAAAAAAAAAAAAAAAAAAAAAAAAAAAAAAAAAAAAAAAAAAAAAAAAAAAAAAAAAS",
"SAAAAAAAAAAAAAAAAAAAAAAAAAAAAAAAAAAAAAAAAAAAAAAAAAAAAAAAAAAAAAAAAAAAAAAAAAAAAAAAAAAAAAAAAAAAAAAAAAAAAAAAAAAAAAAAAAAAAAAAAAAAAAAS",
"SAAAAAAAAAAAAAAAAAAAAAAAAAAAAAAAAAAAAAAAAAAAAAAAAAAAAAAAAAAAAAAAAAAAAAAAAAAAAAAAAAAAAAAAAAAAAAAAAAAAAAAAAAAAAAAAAAAAAAAAAAAAAAAS",
"SAAAAAAAAAAAAAAAAAAAAAAAAAAAAAAAAAAAAAAAAAAAAAAAAAAAAAAAAAAAAAAAAAAAAAAAAAAAAAAAAAAAAAAAAAAAAAAAAAAAAAAAAAAAAAAAAAAAAAAAAAAAAAAS",
"SAAAAAAAAAAAAAAAAAAAAAAAAAAAAAAAAAAAAAAAAAAAAAAAAAAAAAAAAAAAAAAAAAAAAAAAAAAAAAAAAAAAAAAAAAAAAAAAAAAAAAAAAAAAAAAAAAAAAAAAAAAAAAAS",
"SAAAAAAAAAAAAAAAAAAAAAAAAAAAAAAAAAAAAAAAAAAAAAAAAAAAAAAAAAAAAAAAAAAAAAAAAAAAAAAAAAAAAAAAAAAAAAAAAAAAAAAAAAAAAAAAAAAAAAAAAAAAAAAS",
"SAAAAAAAAAAAAAAAAAAAAAAAAAAAAAAAAAAAAAAAAAAAAAAAAAAAAAAAAAAAAAAAAAAAAAAAAAAAAAAAAAAAAAAAAAAAAAAAAAAAAAAAAAAAAAAAAAAAAAAAAAAAAAAS",
"SAAAAAAAAAAAAAAAAAAAAAAAAAAAAAAAAAAAAAAAAAAAAAAAAAAAAAAAAAAAAAAAAAAAAAAAAAAAAAAAAAAAAAAAAAAAAAAAAAAAAAAAAAAAAAAAAAAAAAAAAAAAAAAS",
"SAAAAAAAAAAAAAAAAAAAAAAAAAAAAAAAAAAAAAAAAAAAAAAAAAAAAAAAAAAAAAAAAAAAAAAAAAAAAAAAAAAAAAAAAAAAAAAAAAAAAAAAAAAAAAAAAAAAAAAAAAAAAAAS",
"SAAAAAAAAAAAAAAAAAAAAAAAAAAAAAAAAAAAAAAAAAAAAAAAAAAAAAAAAAAAAAAAAAAAAAAAAAAAAAAAAAAAAAAAAAAAAAAAAAAAAAAAAAAAAAAAAAAAAAAAAAAAAAAS",
"SAAAAAAAAAAAAAAAAAAAAAAAAAAAAAAAAAAAAAAAAAAAAAAAAAAAAAAAAAAAAAAAAAAAAAAAAAAAAAAAAAAAAAAAAAAAAAAAAAAAAAAAAAAAAAAAAAAAAAAAAAAAAAAS",
"SAAAAAAAAAAAAAAAAAAAAAAAAAAAAAAAAAAAAAAAAAAAAAAAAAAAAAAAAAAAAAAAAAAAAAAAAAAAAAAAAAAAAAAAAAAAAAAAAAAAAAAAAAAAAAAAAAAAAAAAAAAAAAAS",
"SAAAAAAAAAAAAAAAAAAAAAAAAAAAAAAAAAAAAAAAAAAAAAAAAAAAAAAAAAAAAAAAAAAAAAAAAAAAAAAAAAAAAAAAAAAAAAAAAAAAAAAAAAAAAAAAAAAAAAAAAAAAAAAS",
"SAAAAAAAAAAAAAAAAAAAAAAAAAAAAAAAAAAAAAAAAAAAAAAAAAAAAAAAAAAAAAAAAAAAAAAAAAAAAAAAAAAAAAAAAAAAAAAAAAAAAAAAAAAAAAAAAAAAAAAAAAAAAAAS",
"SAAAAAAAAAAAAAAAAAAAAAAAAAAAAAAAAAAAAAAAAAAAAAAAAAAAAAAAAAAAAAAAAAAAAAAAAAAAAAAAAAAAAAAAAAAAAAAAAAAAAAAAAAAAAAAAAAAAAAAAAAAAAAAS",
"SAAAAAAAAAAAAAAAAAAAAAAAAAAAAAAAAAAAAAAAAAAAAAAAAAAAAAAAAAAAAAAAAAAAAAAAAAAAAAAAAAAAAAAAAAAAAAAAAAAAAAAAAAAAAAAAAAAAAAAAAAAAAAAS",
"SAAAAAAAAAAAAAAAAAAAAAAAAAAAAAAAAAAAAAAAAAAAAAAAAAAAAAAAAAAAAAAAAAAAAAAAAAAAAAAAAAAAAAAAAAAAAAAAAAAAAAAAAAAAAAAAAAAAAAAAAAAAAAAS",
"SAAAAAAAAAAAAAAAAAAAAAAAAAAAAAAAAAAAAAAAAAAAAAAAAAAAAAAAAAAAAAAAAAAAAAAAAAAAAAAAAAAAAAAAAAAAAAAAAAAAAAAAAAAAAAAAAAAAAAAAAAAAAAAS",
"SAAAAAAAAAAAAAAAAAAAAAAAAAAAAAAAAAAAAAAAAAAAAAAAAAAAAAAAAAAAAAAAAAAAAAAAAAAAAAAAAAAAAAAAAAAAAAAAAAAAAAAAAAAAAAAAAAAAAAAAAAAAAAAS",
"SAAAAAAAAAAAAAAAAAAAAAAAAAAAAAAAAAAAAAAAAAAAAAAAAAAAAAAAAAAAAAAAAAAAAAAAAAAAAAAAAAAAAAAAAAAAAAAAAAAAAAAAAAAAAAAAAAAAAAAAAAAAAAAS",
"SAAAAAAAAAAAAAAAAAAAAAAAAAAAAAAAAAAAAAAAAAAAAAAAAAAAAAAAAAAAAAAAAAAAAAAAAAAAAAAAAAAAAAAAAAAAAAAAAAAAAAAAAAAAAAAAAAAAAAAAAAAAAAAS",
"SAAAAAAAAAAAAAAAAAAAAAAAAAAAAAAAAAAAAAAAAAAAAAAAAAAAAAAAAAAAAAAAAAAAAAAAAAAAAAAAAAAAAAAAAAAAAAAAAAAAAAAAAAAAAAAAAAAAAAAAAAAAAAAS",
"SAAAAAAAAAAAAAAAAAAAAAAAAAAAAAAAAAAAAAAAAAAAAAAAAAAAAAAAAAAAAAAAAAAAAAAAAAAAAAAAAAAAAAAAAAAAAAAAAAAAAAAAAAAAAAAAAAAAAAAAAAAAAAAS",
"SAAAAAAAAAAAAAAAAAAAAAAAAAAAAAAAAAAAAAAAAAAAAAAAAAAAAAAAAAAAAAAAAAAAAAAAAAAAAAAAAAAAAAAAAAAAAAAAAAAAAAAAAAAAAAAAAAAAAAAAAAAAAAAS",
"SAAAAAAAAAAAAAAAAAAAAAAAAAAAAAAAAAAAAAAAAAAAAAAAAAAAAAAAAAAAAAAAAAAAAAAAAAAAAAAAAAAAAAAAAAAAAAAAAAAAAAAAAAAAAAAAAAAAAAAAAAAAAAAS",
"SAAAAAAAAAAAAAAAAAAAAAAAAAAAAAAAAAAAAAAAAAAAAAAAAAAAAAAAAAAAAAAAAAAAAAAAAAAAAAAAAAAAAAAAAAAAAAAAAAAAAAAAAAAAAAAAAAAAAAAAAAAAAAAS",
"SAAAAAAAAAAAAAAAAAAAAAAAAAAAAAAAAAAAAAAAAAAAAAAAAAAAAAAAAAAAAAAAAAAAAAAAAAAAAAAAAAAAAAAAAAAAAAAAAAAAAAAAAAAAAAAAAAAAAAAAAAAAAAAS",
"SAAAAAAAAAAAAAAAAAAAAAAAAAAAAAAAAAAAAAAAAAAAAAAAAAAAAAAAAAAAAAAAAAAAAAAAAAAAAAAAAAAAAAAAAAAAAAAAAAAAAAAAAAAAAAAAAAAAAAAAAAAAAAAS",
"SAAAAAAAAAAAAAAAAAAAAAAAAAAAAAAAAAAAAAAAAAAAAAAAAAAAAAAAAAAAAAAAAAAAAAAAAAAAAAAAAAAAAAAAAAAAAAAAAAAAAAAAAAAAAAAAAAAAAAAAAAAAAAAS",
"SAAAAAAAAAAAAAAAAAAAAAAAAAAAAAAAAAAAAAAAAAAAAAAAAAAAAAAAAAAAAAAAAAAAAAAAAAAAAAAAAAAAAAAAAAAAAAAAAAAAAAAAAAAAAAAAAAAAAAAAAAAAAAAS",
"uqqqqqqqqqqqqqqqqqqqqqqqqqqqqqqqqqqqqqqqqqqqqqqqqqqqqqqqqqq8555qqqqqqqqqqqqqqqqqqqqqqqqqqqqqqqqqqqqqqqqqqqqqqqqqqqqqqqqqqqqqqqqu",
"t000000000000000000000000000000000000000000000000000004:$.       X%>70000000000000000000000000000000000000000000000000000000000t",
"t000000000000000000000000000000000000000000000000000,X               %300000000000000000000000000000000000000000000000000000000t",
"t00000000000000000000000000000000000000000000000004#                   ;9000000000000000000000000000000000000000000000000000000t",
"t0000000000000000000000000000000000000000000000004.                     #900000000000000000000000000000000000000000000000000000t",
"t000000000000000000000000000000000000000000000004.                       #90000000000000000000000000000000000000000000000000000t",
"t00000000000000000000000000000000000000000000009X                         1w000000000000000000000000000000000000000000000000000t",
"t0000000000000000000000000000000000000000000000:                           p000000000000000000000000000000000000000000000000000t",
"t0000000000000000000000000000000000000000000009.                           &000000000000000000000000000000000000000000000000000t",
"t000000000000000000000000000000000000000000000,                             700000000000000000000000000000000000000000000000000t",
"t000000000000000000000000000000000000000000000-                             >00000000000000000000000000000000000000000000000000t",
"t000000000000000000000000000000000000000000000$          OkvNZbzO           %00000000000000000000000000000000000000000000000000t",
"t000000000000000000000000000000000000000000000$          ir00mBde           $00000000000000000000000000000000000000000000000000t",
"t000000000000000000000000000000000000000000000$           -40nx00#           00000000000000000000000000000000000000000000000000t",
"t000000000000000000000000000000000000000000000$             Xja90;           00000000000000000000000000000000000000000000000000t",
"t000000000000000000000000000000000000000000000;                 ##           00000000000000000000000000000000000000000000000000t",
"t0000000000000000000000000000000000000000000002                     O-333900000000000000000000000000000000000000000000000000000t",
"t0000000000000000000000000000000000000000000000X                      .:9000000000000000000000000000000000000000000000000000000t",
"t0000000000000000000000000000000000000000000000,                        .200000000000000000000000000000000000000000000000000000t",
"t00000000000000000000000000000000000000000000000$                         ,0000000000000000000000000000000000000000000000000000t",
"t000000000000000000000000000000000000000000000009X                         ,000000000000000000000000000000000000000000000000000t",
"t0000000000000000000000000000000000000000000000007#                         400000000000000000000000000000000000000000000000000t",
"t00000000000000000000000000000000000000000000000009;                        $00000000000000000000000000000000000000000000000000t",
"t0000000000000000000000000000000000000000000000000003%                       30000000000000000000000000000000000000000000000000t",
"t0000000000000000000000000000000000000000000000000033>-X#                    -0000000000000000000000000000000000000000000000000t",
"t000000000000000000000000000000000000000000000,$#       07<h+                X0000000000000000000000000000000000000000000000000t",
"t000000000000000000000000000000000000000000004          40sZV7,-.             0000000000000000000000000000000000000000000000000t",
"t00000000000000000000000000000000000000000000.          >0gZM00002o           7000000000000000000000000000000000000000000000000t",
"t00000000000000000000000000000000000000000000           #0cZm00000f           3000000000000000000000000000000000000000000000000t",
"t00000000000000000000000000000000000000000000$           >nZm00000*           4000000000000000000000000000000000000000000000000t",
"t00000000000000000000000000000000000000000000;            lCm0009-            0000000000000000000000000000000000000000000000000t",
"t000000000000000000000000000000000000000000002              =$$#             X0000000000000000000000000000000000000000000000000t",
"t000000000000000000000000000000000000000000000X                              ;0000000000000000000000000000000000000000000000000t",
"t000000000000000000000000000000000000000000000:                              40000000000000000000000000000000000000000000000000t",
"t0000000000000000000000000000000000000000000009.                            $00000000000000000000000000000000000000000000000000t",
"t00000000000000000000000000000000000000000000002                           .700000000000000000000000000000000000000000000000000t",
"t00000000000000000000000000000000000000000000000;                          ,000000000000000000000000000000000000000000000000000t",
"t000000000000000000000000000000000000000000000000-                        ,0000000000000000000000000000000000000000000000000000t",
"t0000000000000000000000000000000000000000000000000>                     .,00000000000000000000000000000000000000000000000000000t",
"t000000000000000000000000000000000000000000000000007$                  -7000000000000000000000000000000000000000000000000000000t",
"t00000000000000000000000000000000000000000000000000007;#            #>700000000000000000000000000000000000000000000000000000000t",
"t000000000000000000000000000000000000000000000000000000093>::::::23000000000000000000000000000000000000000000000000000000000000t",
"y666666666666666666666666666666666666666666666666666666666666666666666666666666666666666666666666666666666666666666666666666666y",
"@                                                                                                                              @",
"@                                                                                                                              @",
"@                                                                                                                              @",
"@                                                                                                                              @",
"@                                                                                                                              @",
"@                                                                                                                              @",
"@                                                                                                                              @",
"@                                                                                                                              @",
"@                                                                                                                              @",
"@                                                                                                                              @",
"@                                                                                                                              @",
"@                                                                                                                              @",
"@                                                                                                                              @",
"@                                                                                                                              @",
"@                                                                                                                              @",
"@                                                                                                                              @",
"@                                                                                                                              @",
"@                                                                                                                              @",
"@                                                                                                                              @",
"@                                                                                                                              @",
"@                                                                                                                              @",
"@                                                                                                                              @",
"@                                                                                                                              @",
"@                                                                                                                              @",
"@                                                                                                                              @",
"@                                                                                                                              @",
"@                                                                                                                              @",
"@                                                                                                                              @",
"@                                                                                                                              @",
"@                                                                                                                              @",
"@                                                                                                                              @",
"@                                                                                                                              @",
"@                                                                                                                              @",
"@                                                                                                                              @",
"@                                                                                                                              @",
"@                                                                                                                              @",
"@                                                                                                                              @",
"@                                                                                                                              @",
"@                                                                                                                              @",
"@                                                                                                                              @",
"@                                                                                                                              @",
"@                                                                                                                              @"
};
