/* XPM */
static char *_151d6c95cdc4730ebf14ee854303433eG9UeE1R64liSFa8[] = {
/* columns rows colors chars-per-pixel */
"128 128 61 1 ",
"  c black",
". c #10041B",
"X c #12061C",
"o c #220F31",
"O c gray14",
"+ c #242A20",
"@ c #2D2D2D",
"# c #2F352B",
"$ c #332F35",
"% c gray22",
"& c #3D3A3F",
"* c #3F3F3F",
"= c #301843",
"- c #3B1F52",
"; c #462560",
": c #502B6D",
"> c #593179",
", c #5C367A",
"< c gray26",
"1 c gray33",
"2 c #656366",
"3 c #676767",
"4 c gray47",
"5 c #FFF323",
"6 c #FFF42E",
"7 c #FFF433",
"8 c #FFF53D",
"9 c #FFF548",
"0 c #613684",
"q c #693B8F",
"w c #713F99",
"e c #723AA0",
"r c #7944A3",
"t c #8048AC",
"y c #8450AE",
"u c #874DB6",
"i c #8E51BF",
"p c #934CCC",
"a c #9555C7",
"s c #9557C8",
"d c #9955CF",
"f c #9B59D0",
"g c #A45CDD",
"h c #9A60CB",
"j c #A062D2",
"k c #A56AD4",
"l c #A964DF",
"z c gray53",
"x c gray59",
"c c #9F9DA1",
"v c gray64",
"b c gray69",
"n c #BCBCBC",
"m c #C8C8C8",
"M c gray83",
"N c #DFDFDF",
"B c #EAEAEA",
"V c gray96",
"C c #FFFEF4",
"Z c #FAF6FD",
"A c white",
/* pixels */
"98888888888888888888888888888888888888888888888888888888888888888888888888888888888888888888888888888888888888888888888888888889",
"77777777777777777777777777777777777777777777777777777777777777777777777777777777777777777777777777777777777777777777777777777777",
"87777777777777777777777777777777777777777777777777777777777777777777777777777777777777777777777777777777777777777777777777777778",
"87777777777777777777777777777777777777777777777777777777777777777777777777777777777777777777777777777777777777777777777777777778",
"87777777777777777777777777777777777777777777777777777777777777777777777777777777777777777777777777777777777777777777777777777778",
"87777777777777777777777777777777777777777777777777777777777777777777777777777777777777777777777777777777777777777777777777777778",
"87777777777777777777777777777777777777777777777777777777777777777777777777777777777777777777777777777777777777777777777777777778",
"87777777777777777777777777777777777777777777777777777777777777777777777777777777777777777777777777777777777777777777777777777778",
"87777777777777777777777777777777777777777777777777777777777777777777777777777777777777777777777777777777777777777777777777777778",
"87777777777777777777777777777777777777777777777777777777777777777777777777777777777777777777777777777777777777777777777777777778",
"87777777777777777777777777777777777777777777777777777777777777777777777777777777777777777777777777777777777777777777777777777778",
"87777777777777777777777777777777777777777777777777777777777777777777777777777777777777777777777777777777777777777777777777777778",
"87777777777777777777777777777777777777777777777777777777777777777777777777777777777777777777777777777777777777777777777777777778",
"87777777777777777777777777777777777777777777777777777777777777777777777777777777777777777777777777777777777777777777777777777778",
"87777777777777777777777777777777777777777777777777777777777777777777777777777777777777777777777777777777777777777777777777777778",
"87777777777777777777777777777777777777777777777777777777777777777777777777777777777777777777777777777777777777777777777777777778",
"87777777777777777777777777777777777777777777777777777777777777777777777777777777777777777777777777777777777777777777777777777778",
"87777777777777777777777777777777777777777777777777777777777777777777777777777777777777777777777777777777777777777777777777777778",
"87777777777777777777777777777777777777777777777777777777777777777777777777777777777777777777777777777777777777777777777777777778",
"87777777777777777777777777777777777777777777777777777777777777777777777777777777777777777777777777777777777777777777777777777778",
"87777777777777777777777777777777777777777777777777777777777777777777777777777777777777777777777777777777777777777777777777777778",
"87777777777777777777777777777777777777777777777777777777777777777777777777777777777777777777777777777777777777777777777777777778",
"87777777777777777777777777777777777777777777777777777777777777777777777777777777777777777777777777777777777777777777777777777778",
"87777777777777777777777777777777777777777777777777777777777777777777777777777777777777777777777777777777777777777777777777777778",
"87777777777777777777777777777777777777777777777777777777777777777777777777777777777777777777777777777777777777777777777777777778",
"87777777777777777777777777777777777777777777777777777777777777777777777777777777777777777777777777777777777777777777777777777778",
"87777777777777777777777777777777777777777777777777777777777777777777777777777777777777777777777777777777777777777777777777777778",
"87777777777777777777777777777777777777777777777777777777777777777777777777777777777777777777777777777777777777777777777777777778",
"87777777777777777777777777777777777777777777777777777777777777777777777777777777777777777777777777777777777777777777777777777778",
"87777777777777777777777777777777777777777777777777777777777777777777777777777777777777777777777777777777777777777777777777777778",
"65555555555555555555555555555555555555555555555555555555555555555555555555555555555555555555555555555555555555555555555555555556",
"98888888888888888888888888888888888888888888888888888888888888888888888888888888888888888888888888888888888888888888888888888889",
"CCCCCCCCCCCCCCCCCCCCCCCCCCCCCCCCCCCCCCCCCCCCCCCCCCCCCCCCCCCCCCCCCCCCCCCCCCCCCCCCCCCCCCCCCCCCCCCCCCCCCCCCCCCCCCCCCCCCCCCCCCCCCCCC",
"AAAAAAAAAAAAAAAAAAAAAAAAAAAAAAAAAAAAAAAAAAAAAAAAAAAAAAAAAAAAAAAAAAAAAAAAAAAAAAAAAAAAAAAAAAAAAAAAAAAAAAAAAAAAAAAAAAAAAAAAAAAAAAAA",
"AAAAAAAAAAAAAAAAAAAAAAAAAAAAAAAAAAAAAAAAAAAAAAAAAAAAAAAAAAAAAAAAAAAAAAAAAAAAAAAAAAAAAAAAAAAAAAAAAAAAAAAAAAAAAAAAAAAAAAAAAAAAAAAA",
"AAAAAAAAAAAAAAAAAAAAAAAAAAAAAAAAAAAAAAAAAAAAAAAAAAAAAAAAAAAAAAAAAAAAAAAAAAAAAAAAAAAAAAAAAAAAAAAAAAAAAAAAAAAAAAAAAAAAAAAAAAAAAAAA",
"AAAAAAAAAAAAAAAAAAAAAAAAAAAAAAAAAAAAAAAAAAAAAAAAAAAAAAAAAAAAAAAAAAAAAAAAAAAAAAAAAAAAAAAAAAAAAAAAAAAAAAAAAAAAAAAAAAAAAAAAAAAAAAAA",
"AAAAAAAAAAAAAAAAAAAAAAAAAAAAAAAAAAAAAAAAAAAAAAAAAAAAAAAAAAAAAAAAAAAAAAAAAAAAAAAAAAAAAAAAAAAAAAAAAAAAAAAAAAAAAAAAAAAAAAAAAAAAAAAA",
"AAAAAAAAAAAAAAAAAAAAAAAAAAAAAAAAAAAAAAAAAAAAAAAAAAAAAAAAAAAAAAAAAAAAAAAAAAAAAAAAAAAAAAAAAAAAAAAAAAAAAAAAAAAAAAAAAAAAAAAAAAAAAAAA",
"AAAAAAAAAAAAAAAAAAAAAAAAAAAAAAAAAAAAAAAAAAAAAAAAAAAAAAAAAAAAAAAAAAAAAAAAAAAAAAAAAAAAAAAAAAAAAAAAAAAAAAAAAAAAAAAAAAAAAAAAAAAAAAAA",
"AAAAAAAAAAAAAAAAAAAAAAAAAAAAAAAAAAAAAAAAAAAAAAAAAAAAAAAAAAAAAAAAAAAAAAAAAAAAAAAAAAAAAAAAAAAAAAAAAAAAAAAAAAAAAAAAAAAAAAAAAAAAAAAA",
"AAAAAAAAAAAAAAAAAAAAAAAAAAAAAAAAAAAAAAAAAAAAAAAAAAAAAAAAAAAAAAAAAAAAAAAAAAAAAAAAAAAAAAAAAAAAAAAAAAAAAAAAAAAAAAAAAAAAAAAAAAAAAAAA",
"AAAAAAAAAAAAAAAAAAAAAAAAAAAAAAAAAAAAAAAAAAAAAAAAAAAAAAAAAAAAAAAAAAAAAAAAAAAAAAAAAAAAAAAAAAAAAAAAAAAAAAAAAAAAAAAAAAAAAAAAAAAAAAAA",
"AAAAAAAAAAAAAAAAAAAAAAAAAAAAAAAAAAAAAAAAAAAAAAAAAAAAAAAAAAAAAAAAAAAAAAAAAAAAAAAAAAAAAAAAAAAAAAAAAAAAAAAAAAAAAAAAAAAAAAAAAAAAAAAA",
"AAAAAAAAAAAAAAAAAAAAAAAAAAAAAAAAAAAAAAAAAAAAAAAAAAAAAAAAAAAAAAAAAAAAAAAAAAAAAAAAAAAAAAAAAAAAAAAAAAAAAAAAAAAAAAAAAAAAAAAAAAAAAAAA",
"AAAAAAAAAAAAAAAAAAAAAAAAAAAAAAAAAAAAAAAAAAAAAAAAAAAAAAAAAAAAAAAAAAAAAAAAAAAAAAAAAAAAAAAAAAAAAAAAAAAAAAAAAAAAAAAAAAAAAAAAAAAAAAAA",
"AAAAAAAAAAAAAAAAAAAAAAAAAAAAAAAAAAAAAAAAAV433333333nAAAAAAAN33333333333zAAAAAAAN333333333mAAAAAAAAAAAAAAAAAAAAAAAAAAAAAAAAAAAAAA",
"AAAAAAAAAAAAAAAAAAAAAAAAAAAAAAAAAAAAAAAAA3         3AAAAAAAb            VAAAAAAb         ONAAAAAAAAAAAAAAAAAAAAAAAAAAAAAAAAAAAAA",
"AAAAAAAAAAAAAAAAAAAAAAAAAAAAAAAAAAAAAAAAA          OAAAAAAA3            mAAAAAAz          1AAAAAAAAAAAAAAAAAAAAAAAAAAAAAAAAAAAAA",
"AAAAAAAAAAAAAAAAAAAAAAAAAAAAAAAAAAAAAAAAA           NAAAAAA             xAAAAAA1           AAAAAAAAAAAAAAAAAAAAAAAAAAAAAAAAAAAAA",
"AAAAAAAAAAAAAAAAAAAAAAAAAAAAAAAAAAAAAAAAA           nAAAAAM             *AAAAAA           3AAAAAAAAAAAAAAAAAAAAAAAAAAAAAAAAAAAAA",
"AAAAAAAAAAAAAAAAAAAAAAAAAAAAAAAAAAAAAAAAA           xAAAAAx              BAAAAM           xAAAAAAAAAAAAAAAAAAAAAAAAAAAAAAAAAAAAA",
"AAAAAAAAAAAAAAAAAAAAAAAAAAAAAAAAAAAAAAAAA           3AAAAA1              nAAAAb           mAAAAAAAAAAAAAAAAAAAAAAAAAAAAAAAAAAAAA",
"AAAAAAAAAAAAAAAAAAAAAAAAAAAAAAAAAAAAAAAAA3           AAAAV               zAAAA4           VAAAAAAAAAAAAAAAAAAAAAAAAAAAAAAAAAAAAA",
"AAAAAAAAAAAAAAAAAAAAAAAAAAAAAAAAAAAAAAAAAv           MAAAn               *AAAA*          *AAAAAAAAAAAAAAAAAAAAAAAAAAAAAAAAAAAAAA",
"AAAAAAAAAAAAAAAAAAAAAAAAAAAAAAAAAAAAAAAAAm           bAAAz                BAAV           zAAAAAAAAAAAAAAAAAAAAAAAAAAAAAAAAAAAAAA",
"AAAAAAAAAAAAAAAAAAAAAAAAAAAAAAAAAAAAAAAAAV           zAAA*                nAAM           nAAAAAAAAAAAAAAAAAAAAAAAAAAAAAAAAAAAAAA",
"AAAAAAAAAAAAAAAAAAAAAAAAAAAAAAAAAAAAAAAAAA*          *AAN                 zAAv           NAAAAAAAAAAAAAAAAAAAAAAAAAAAAAAAAAAAAAA",
"AAAAAAAAAAAAAAAAAAAAAAAAAAAAAAAAAAAAAAAAAAz           VAb                 *AA4          OAAAAAAAAAAAAAAAAAAAAAAAAAAAAAAAAAAAAAAA",
"AAAAAAAAAAAAAAAAAAAAAAAAAAAAAAAAAAAAAAAAAAn           MA4                  BAO          4AAAAAAAAAAAAAAAAAAAAAAAAAAAAAAAAAAAAAAA",
"AAAAAAAAAAAAAAAAAAAAAAAAAAAAAAAAAAAAAAAAAAN           vAO                  nB           vAAAAAAAAAAAAAAAAAAAAAAAAAAAAAAAAAAAAAAA",
"AAAAAAAAAAAAAAAAAAAAAAAAAAAAAAAAAAAAAAAAAAAO          4M                   zm           MAAAAAAAAAAAAAAAAAAAAAAAAAAAAAAAAAAAAAAA",
"AAAAAAAAAAAAAAAAAAAAAAAAAAAAAAAAAAAAAAAAAAA3          Ov                   *v           AAAAAAAAAAAAAAAAAAAAAAAAAAAAAAAAAAAAAAAA",
"ZZZZZZZZZZZZZZZZZZZZZZZZZZZZZZZZZZZZZZZZZZZc           *                    *          2ZZZZZZZZZZZZZZZZZZZZZZZZZZZZZZZZZZZZZZZZ",
"kjjjjjjjjjjjjjjjjjjjjjjjjjjjjjjjjjjjjjjjjjjy                                           ,jjjjjjjjjjjjjjjjjjjjjjjjjjjjjjjjjjjjjjjk",
"dppppppppppppppppppppppppppppppppppppppppppp                     .                     epppppppppppppppppppppppppppppppppppppppd",
"jfffffffffffffffffffffffffffffffffffffffffff=                    >                     afffffffffffffffffffffffffffffffffffffffj",
"jfffffffffffffffffffffffffffffffffffffffffff>                    uo                   offffffffffffffffffffffffffffffffffffffffj",
"jfffffffffffffffffffffffffffffffffffffffffffw                   of:                   :ffffffffffffffffffffffffffffffffffffffffj",
"jfffffffffffffffffffffffffffffffffffffffffffi                   :fw                   wffffffffffffffffffffffffffffffffffffffffj",
"jffffffffffffffffffffffffffffffffffffffffffffo                  wfa                   uffffffffffffffffffffffffffffffffffffffffj",
"jffffffffffffffffffffffffffffffffffffffffffff;                  aff=                 Xfffffffffffffffffffffffffffffffffffffffffj",
"jffffffffffffffffffffffffffffffffffffffffffffq                 =fff>                 -fffffffffffffffffffffffffffffffffffffffffj",
"jfffffffffffffffffffffffffffffffffffffffffffft                 >fffr                 0fffffffffffffffffffffffffffffffffffffffffj",
"jfffffffffffffffffffffffffffffffffffffffffffff                 tfffa                 tfffffffffffffffffffffffffffffffffffffffffj",
"jfffffffffffffffffffffffffffffffffffffffffffff-                fffff-                ffffffffffffffffffffffffffffffffffffffffffj",
"jfffffffffffffffffffffffffffffffffffffffffffff>               -fffff0               =ffffffffffffffffffffffffffffffffffffffffffj",
"jfffffffffffffffffffffffffffffffffffffffffffffr               qffffft               >ffffffffffffffffffffffffffffffffffffffffffj",
"jfffffffffffffffffffffffffffffffffffffffffffffa               uffffffX              rffffffffffffffffffffffffffffffffffffffffffj",
"jffffffffffffffffffffffffffffffffffffffffffffffo             Xfffffff;              iffffffffffffffffffffffffffffffffffffffffffj",
"jffffffffffffffffffffffffffffffffffffffffffffff:             :fffffffq             offfffffffffffffffffffffffffffffffffffffffffj",
"jffffffffffffffffffffffffffffffffffffffffffffffq             wfffffffu             :fffffffffffffffffffffffffffffffffffffffffffj",
"jffffffffffffffffffffffffffffffffffffffffffffffu             iffffffffX            qfffffffffffffffffffffffffffffffffffffffffffj",
"jfffffffffffffffffffffffffffffffffffffffffffffffX           =fffffffff:            ufffffffffffffffffffffffffffffffffffffffffffj",
"jfffffffffffffffffffffffffffffffffffffffffffffff-           >fffffffffw           Xffffffffffffffffffffffffffffffffffffffffffffj",
"jfffffffffffffffffffffffffffffffffffffffffffffff0           rfffffffffi           -ffffffffffffffffffffffffffffffffffffffffffffj",
"jffffffffffffffffffffffffffffffffffffffffffffffffffffffffffffffffffffffffffffffffffffffffffffffffffffffffffffffffffffffffffffffj",
"jffffffffffffffffffffffffffffffffffffffffffffffffffffffffffffffffffffffffffffffffffffffffffffffffffffffffffffffffffffffffffffffj",
"jffffffffffffffffffffffffffffffffffffffffffffffffffffffffffffffffffffffffffffffffffffffffffffffffffffffffffffffffffffffffffffffj",
"jffffffffffffffffffffffffffffffffffffffffffffffffffffffffffffffffffffffffffffffffffffffffffffffffffffffffffffffffffffffffffffffj",
"jffffffffffffffffffffffffffffffffffffffffffffffffffffffffffffffffffffffffffffffffffffffffffffffffffffffffffffffffffffffffffffffj",
"jffffffffffffffffffffffffffffffffffffffffffffffffffffffffffffffffffffffffffffffffffffffffffffffffffffffffffffffffffffffffffffffj",
"jffffffffffffffffffffffffffffffffffffffffffffffffffffffffffffffffffffffffffffffffffffffffffffffffffffffffffffffffffffffffffffffj",
"jffffffffffffffffffffffffffffffffffffffffffffffffffffffffffffffffffffffffffffffffffffffffffffffffffffffffffffffffffffffffffffffj",
"lggggggggggggggggggggggggggggggggggggggggggggggggggggggggggggggggggggggggggggggggggggggggggggggggggggggggggggggggggggggggggggggl",
"hssssssssssssssssssssssssssssssssssssssssssssssssssssssssssssssssssssssssssssssssssssssssssssssssssssssssssssssssssssssssssssssh",
"&$$$$$$$$$$$$$$$$$$$$$$$$$$$$$$$$$$$$$$$$$$$$$$$$$$$$$$$$$$$$$$$$$$$$$$$$$$$$$$$$$$$$$$$$$$$$$$$$$$$$$$$$$$$$$$$$$$$$$$$$$$$$$$&",
"#++++++++++++++++++++++++++++++++++++++++++++++++++++++++++++++++++++++++++++++++++++++++++++++++++++++++++++++++++++++++++++++#",
"%@@@@@@@@@@@@@@@@@@@@@@@@@@@@@@@@@@@@@@@@@@@@@@@@@@@@@@@@@@@@@@@@@@@@@@@@@@@@@@@@@@@@@@@@@@@@@@@@@@@@@@@@@@@@@@@@@@@@@@@@@@@@@@%",
"%@@@@@@@@@@@@@@@@@@@@@@@@@@@@@@@@@@@@@@@@@@@@@@@@@@@@@@@@@@@@@@@@@@@@@@@@@@@@@@@@@@@@@@@@@@@@@@@@@@@@@@@@@@@@@@@@@@@@@@@@@@@@@@%",
"%@@@@@@@@@@@@@@@@@@@@@@@@@@@@@@@@@@@@@@@@@@@@@@@@@@@@@@@@@@@@@@@@@@@@@@@@@@@@@@@@@@@@@@@@@@@@@@@@@@@@@@@@@@@@@@@@@@@@@@@@@@@@@@%",
"%@@@@@@@@@@@@@@@@@@@@@@@@@@@@@@@@@@@@@@@@@@@@@@@@@@@@@@@@@@@@@@@@@@@@@@@@@@@@@@@@@@@@@@@@@@@@@@@@@@@@@@@@@@@@@@@@@@@@@@@@@@@@@@%",
"%@@@@@@@@@@@@@@@@@@@@@@@@@@@@@@@@@@@@@@@@@@@@@@@@@@@@@@@@@@@@@@@@@@@@@@@@@@@@@@@@@@@@@@@@@@@@@@@@@@@@@@@@@@@@@@@@@@@@@@@@@@@@@@%",
"%@@@@@@@@@@@@@@@@@@@@@@@@@@@@@@@@@@@@@@@@@@@@@@@@@@@@@@@@@@@@@@@@@@@@@@@@@@@@@@@@@@@@@@@@@@@@@@@@@@@@@@@@@@@@@@@@@@@@@@@@@@@@@@%",
"%@@@@@@@@@@@@@@@@@@@@@@@@@@@@@@@@@@@@@@@@@@@@@@@@@@@@@@@@@@@@@@@@@@@@@@@@@@@@@@@@@@@@@@@@@@@@@@@@@@@@@@@@@@@@@@@@@@@@@@@@@@@@@@%",
"%@@@@@@@@@@@@@@@@@@@@@@@@@@@@@@@@@@@@@@@@@@@@@@@@@@@@@@@@@@@@@@@@@@@@@@@@@@@@@@@@@@@@@@@@@@@@@@@@@@@@@@@@@@@@@@@@@@@@@@@@@@@@@@%",
"%@@@@@@@@@@@@@@@@@@@@@@@@@@@@@@@@@@@@@@@@@@@@@@@@@@@@@@@@@@@@@@@@@@@@@@@@@@@@@@@@@@@@@@@@@@@@@@@@@@@@@@@@@@@@@@@@@@@@@@@@@@@@@@%",
"%@@@@@@@@@@@@@@@@@@@@@@@@@@@@@@@@@@@@@@@@@@@@@@@@@@@@@@@@@@@@@@@@@@@@@@@@@@@@@@@@@@@@@@@@@@@@@@@@@@@@@@@@@@@@@@@@@@@@@@@@@@@@@@%",
"%@@@@@@@@@@@@@@@@@@@@@@@@@@@@@@@@@@@@@@@@@@@@@@@@@@@@@@@@@@@@@@@@@@@@@@@@@@@@@@@@@@@@@@@@@@@@@@@@@@@@@@@@@@@@@@@@@@@@@@@@@@@@@@%",
"%@@@@@@@@@@@@@@@@@@@@@@@@@@@@@@@@@@@@@@@@@@@@@@@@@@@@@@@@@@@@@@@@@@@@@@@@@@@@@@@@@@@@@@@@@@@@@@@@@@@@@@@@@@@@@@@@@@@@@@@@@@@@@@%",
"%@@@@@@@@@@@@@@@@@@@@@@@@@@@@@@@@@@@@@@@@@@@@@@@@@@@@@@@@@@@@@@@@@@@@@@@@@@@@@@@@@@@@@@@@@@@@@@@@@@@@@@@@@@@@@@@@@@@@@@@@@@@@@@%",
"%@@@@@@@@@@@@@@@@@@@@@@@@@@@@@@@@@@@@@@@@@@@@@@@@@@@@@@@@@@@@@@@@@@@@@@@@@@@@@@@@@@@@@@@@@@@@@@@@@@@@@@@@@@@@@@@@@@@@@@@@@@@@@@%",
"%@@@@@@@@@@@@@@@@@@@@@@@@@@@@@@@@@@@@@@@@@@@@@@@@@@@@@@@@@@@@@@@@@@@@@@@@@@@@@@@@@@@@@@@@@@@@@@@@@@@@@@@@@@@@@@@@@@@@@@@@@@@@@@%",
"%@@@@@@@@@@@@@@@@@@@@@@@@@@@@@@@@@@@@@@@@@@@@@@@@@@@@@@@@@@@@@@@@@@@@@@@@@@@@@@@@@@@@@@@@@@@@@@@@@@@@@@@@@@@@@@@@@@@@@@@@@@@@@@%",
"%@@@@@@@@@@@@@@@@@@@@@@@@@@@@@@@@@@@@@@@@@@@@@@@@@@@@@@@@@@@@@@@@@@@@@@@@@@@@@@@@@@@@@@@@@@@@@@@@@@@@@@@@@@@@@@@@@@@@@@@@@@@@@@%",
"%@@@@@@@@@@@@@@@@@@@@@@@@@@@@@@@@@@@@@@@@@@@@@@@@@@@@@@@@@@@@@@@@@@@@@@@@@@@@@@@@@@@@@@@@@@@@@@@@@@@@@@@@@@@@@@@@@@@@@@@@@@@@@@%",
"%@@@@@@@@@@@@@@@@@@@@@@@@@@@@@@@@@@@@@@@@@@@@@@@@@@@@@@@@@@@@@@@@@@@@@@@@@@@@@@@@@@@@@@@@@@@@@@@@@@@@@@@@@@@@@@@@@@@@@@@@@@@@@@%",
"%@@@@@@@@@@@@@@@@@@@@@@@@@@@@@@@@@@@@@@@@@@@@@@@@@@@@@@@@@@@@@@@@@@@@@@@@@@@@@@@@@@@@@@@@@@@@@@@@@@@@@@@@@@@@@@@@@@@@@@@@@@@@@@%",
"%@@@@@@@@@@@@@@@@@@@@@@@@@@@@@@@@@@@@@@@@@@@@@@@@@@@@@@@@@@@@@@@@@@@@@@@@@@@@@@@@@@@@@@@@@@@@@@@@@@@@@@@@@@@@@@@@@@@@@@@@@@@@@@%",
"%@@@@@@@@@@@@@@@@@@@@@@@@@@@@@@@@@@@@@@@@@@@@@@@@@@@@@@@@@@@@@@@@@@@@@@@@@@@@@@@@@@@@@@@@@@@@@@@@@@@@@@@@@@@@@@@@@@@@@@@@@@@@@@%",
"%@@@@@@@@@@@@@@@@@@@@@@@@@@@@@@@@@@@@@@@@@@@@@@@@@@@@@@@@@@@@@@@@@@@@@@@@@@@@@@@@@@@@@@@@@@@@@@@@@@@@@@@@@@@@@@@@@@@@@@@@@@@@@@%",
"%@@@@@@@@@@@@@@@@@@@@@@@@@@@@@@@@@@@@@@@@@@@@@@@@@@@@@@@@@@@@@@@@@@@@@@@@@@@@@@@@@@@@@@@@@@@@@@@@@@@@@@@@@@@@@@@@@@@@@@@@@@@@@@%",
"%@@@@@@@@@@@@@@@@@@@@@@@@@@@@@@@@@@@@@@@@@@@@@@@@@@@@@@@@@@@@@@@@@@@@@@@@@@@@@@@@@@@@@@@@@@@@@@@@@@@@@@@@@@@@@@@@@@@@@@@@@@@@@@%",
"%@@@@@@@@@@@@@@@@@@@@@@@@@@@@@@@@@@@@@@@@@@@@@@@@@@@@@@@@@@@@@@@@@@@@@@@@@@@@@@@@@@@@@@@@@@@@@@@@@@@@@@@@@@@@@@@@@@@@@@@@@@@@@@%",
"%@@@@@@@@@@@@@@@@@@@@@@@@@@@@@@@@@@@@@@@@@@@@@@@@@@@@@@@@@@@@@@@@@@@@@@@@@@@@@@@@@@@@@@@@@@@@@@@@@@@@@@@@@@@@@@@@@@@@@@@@@@@@@@%",
"%@@@@@@@@@@@@@@@@@@@@@@@@@@@@@@@@@@@@@@@@@@@@@@@@@@@@@@@@@@@@@@@@@@@@@@@@@@@@@@@@@@@@@@@@@@@@@@@@@@@@@@@@@@@@@@@@@@@@@@@@@@@@@@%",
"@@@@@@@@@@@@@@@@@@@@@@@@@@@@@@@@@@@@@@@@@@@@@@@@@@@@@@@@@@@@@@@@@@@@@@@@@@@@@@@@@@@@@@@@@@@@@@@@@@@@@@@@@@@@@@@@@@@@@@@@@@@@@@@@",
"<%%%%%%%%%%%%%%%%%%%%%%%%%%%%%%%%%%%%%%%%%%%%%%%%%%%%%%%%%%%%%%%%%%%%%%%%%%%%%%%%%%%%%%%%%%%%%%%%%%%%%%%%%%%%%%%%%%%%%%%%%%%%%%<"
};
